<svg xmlns="http://www.w3.org/2000/svg" viewBox="0 0 680 442" width="680" height="442" role="img" aria-label="Codec time by file size"><rect width="680" height="442" fill="#fcfcfb"/><text x="18" y="21" font-family="system-ui, -apple-system, Segoe UI, sans-serif" font-size="14.5" font-weight="600" fill="#0b0b0b">Codec time by file size</text><line x1="18" y1="35" x2="38" y2="35" stroke="#2a78d6" stroke-width="2.5"/><text x="44" y="39" font-family="system-ui, -apple-system, Segoe UI, sans-serif" font-size="11.5" fill="#52514e">Default encode</text><line x1="148.1" y1="35" x2="168.1" y2="35" stroke="#2a78d6" stroke-width="2.5" stroke-dasharray="5 3"/><text x="174.1" y="39" font-family="system-ui, -apple-system, Segoe UI, sans-serif" font-size="11.5" fill="#52514e">Default decode</text><line x1="278.2" y1="35" x2="298.2" y2="35" stroke="#1baf7a" stroke-width="2.5"/><text x="304.2" y="39" font-family="system-ui, -apple-system, Segoe UI, sans-serif" font-size="11.5" fill="#52514e">Dense encode</text><line x1="396" y1="35" x2="416" y2="35" stroke="#1baf7a" stroke-width="2.5" stroke-dasharray="5 3"/><text x="422" y="39" font-family="system-ui, -apple-system, Segoe UI, sans-serif" font-size="11.5" fill="#52514e">Dense decode</text><line x1="513.8" y1="35" x2="533.8" y2="35" stroke="#eda100" stroke-width="2.5"/><text x="539.8" y="39" font-family="system-ui, -apple-system, Segoe UI, sans-serif" font-size="11.5" fill="#52514e">Max4K encode</text><line x1="18" y1="51" x2="38" y2="51" stroke="#eda100" stroke-width="2.5" stroke-dasharray="5 3"/><text x="44" y="55" font-family="system-ui, -apple-system, Segoe UI, sans-serif" font-size="11.5" fill="#52514e">Max4K decode</text><line x1="135.8" y1="51" x2="155.8" y2="51" stroke="#008300" stroke-width="2.5"/><text x="161.8" y="55" font-family="system-ui, -apple-system, Segoe UI, sans-serif" font-size="11.5" fill="#52514e">Max4K-R10 encode</text><line x1="278.2" y1="51" x2="298.2" y2="51" stroke="#008300" stroke-width="2.5" stroke-dasharray="5 3"/><text x="304.2" y="55" font-family="system-ui, -apple-system, Segoe UI, sans-serif" font-size="11.5" fill="#52514e">Max4K-R10 decode</text><g transform="translate(0,62)"><line x1="76" y1="334" x2="662" y2="334" stroke="#e1e0d9" stroke-width="1"/><text x="68" y="337.5" fill="#898781" font-size="10.5" font-family="system-ui, -apple-system, Segoe UI, sans-serif" text-anchor="end">10 ms</text><line x1="76" y1="254" x2="662" y2="254" stroke="#e1e0d9" stroke-width="1"/><text x="68" y="257.5" fill="#898781" font-size="10.5" font-family="system-ui, -apple-system, Segoe UI, sans-serif" text-anchor="end">100 ms</text><line x1="76" y1="174" x2="662" y2="174" stroke="#e1e0d9" stroke-width="1"/><text x="68" y="177.5" fill="#898781" font-size="10.5" font-family="system-ui, -apple-system, Segoe UI, sans-serif" text-anchor="end">1 s</text><line x1="76" y1="94" x2="662" y2="94" stroke="#e1e0d9" stroke-width="1"/><text x="68" y="97.5" fill="#898781" font-size="10.5" font-family="system-ui, -apple-system, Segoe UI, sans-serif" text-anchor="end">10 s</text><line x1="76" y1="14" x2="662" y2="14" stroke="#e1e0d9" stroke-width="1"/><text x="68" y="17.5" fill="#898781" font-size="10.5" font-family="system-ui, -apple-system, Segoe UI, sans-serif" text-anchor="end">1.7 min</text><line x1="76" y1="14" x2="76" y2="334" stroke="#e1e0d9" stroke-width="1"/><text x="76" y="352" fill="#898781" font-size="10.5" font-family="system-ui, -apple-system, Segoe UI, sans-serif" text-anchor="middle">1KB</text><line x1="173.33" y1="14" x2="173.33" y2="334" stroke="#e1e0d9" stroke-width="1"/><text x="173.33" y="352" fill="#898781" font-size="10.5" font-family="system-ui, -apple-system, Segoe UI, sans-serif" text-anchor="middle">10KB</text><line x1="270.66" y1="14" x2="270.66" y2="334" stroke="#e1e0d9" stroke-width="1"/><text x="270.66" y="352" fill="#898781" font-size="10.5" font-family="system-ui, -apple-system, Segoe UI, sans-serif" text-anchor="middle">100KB</text><line x1="338.7" y1="14" x2="338.7" y2="334" stroke="#e1e0d9" stroke-width="1"/><text x="338.7" y="352" fill="#898781" font-size="10.5" font-family="system-ui, -apple-system, Segoe UI, sans-serif" text-anchor="middle">500KB</text><line x1="369" y1="14" x2="369" y2="334" stroke="#e1e0d9" stroke-width="1"/><text x="369" y="352" fill="#898781" font-size="10.5" font-family="system-ui, -apple-system, Segoe UI, sans-serif" text-anchor="middle">1MB</text><line x1="466.33" y1="14" x2="466.33" y2="334" stroke="#e1e0d9" stroke-width="1"/><text x="466.33" y="352" fill="#898781" font-size="10.5" font-family="system-ui, -apple-system, Segoe UI, sans-serif" text-anchor="middle">10MB</text><line x1="563.66" y1="14" x2="563.66" y2="334" stroke="#e1e0d9" stroke-width="1"/><text x="563.66" y="352" fill="#898781" font-size="10.5" font-family="system-ui, -apple-system, Segoe UI, sans-serif" text-anchor="middle">100MB</text><line x1="602.4" y1="14" x2="602.4" y2="334" stroke="#e1e0d9" stroke-width="1"/><text x="602.4" y="352" fill="#898781" font-size="10.5" font-family="system-ui, -apple-system, Segoe UI, sans-serif" text-anchor="middle">250MB</text><line x1="631.7" y1="14" x2="631.7" y2="334" stroke="#e1e0d9" stroke-width="1"/><text x="631.7" y="364" fill="#898781" font-size="10.5" font-family="system-ui, -apple-system, Segoe UI, sans-serif" text-anchor="middle">500MB</text><line x1="662" y1="14" x2="662" y2="334" stroke="#e1e0d9" stroke-width="1"/><text x="662" y="352" fill="#898781" font-size="10.5" font-family="system-ui, -apple-system, Segoe UI, sans-serif" text-anchor="middle">1GB</text><line x1="76" y1="334" x2="662" y2="334" stroke="#c3c2b7" stroke-width="1"/><polyline points="76,330.34 173.33,319.76 270.66,273.4 338.7,260.14 369,264.84 466.33,219.9 563.66,142.61 602.4,121.96 631.7,100.31 662,76.46" fill="none" stroke="#2a78d6" stroke-width="2"/><circle cx="76" cy="330.34" r="3.5" fill="#2a78d6" stroke="#fcfcfb" stroke-width="2"><title>Default encode at 1KB: 11.1 ms</title></circle><circle cx="173.33" cy="319.76" r="3.5" fill="#2a78d6" stroke="#fcfcfb" stroke-width="2"><title>Default encode at 10KB: 15.1 ms</title></circle><circle cx="270.66" cy="273.4" r="3.5" fill="#2a78d6" stroke="#fcfcfb" stroke-width="2"><title>Default encode at 100KB: 57.2 ms</title></circle><circle cx="338.7" cy="260.14" r="3.5" fill="#2a78d6" stroke="#fcfcfb" stroke-width="2"><title>Default encode at 500KB: 83.8 ms</title></circle><circle cx="369" cy="264.84" r="3.5" fill="#2a78d6" stroke="#fcfcfb" stroke-width="2"><title>Default encode at 1MB: 73.2 ms</title></circle><circle cx="466.33" cy="219.9" r="3.5" fill="#2a78d6" stroke="#fcfcfb" stroke-width="2"><title>Default encode at 10MB: 266.8 ms</title></circle><circle cx="563.66" cy="142.61" r="3.5" fill="#2a78d6" stroke="#fcfcfb" stroke-width="2"><title>Default encode at 100MB: 2.47 s</title></circle><circle cx="602.4" cy="121.96" r="3.5" fill="#2a78d6" stroke="#fcfcfb" stroke-width="2"><title>Default encode at 250MB: 4.47 s</title></circle><circle cx="631.7" cy="100.31" r="3.5" fill="#2a78d6" stroke="#fcfcfb" stroke-width="2"><title>Default encode at 500MB: 8.34 s</title></circle><circle cx="662" cy="76.46" r="3.5" fill="#2a78d6" stroke="#fcfcfb" stroke-width="2"><title>Default encode at 1GB: 16.57 s</title></circle><polyline points="76,278.05 173.33,275.55 270.66,278.3 338.7,271.47 369,282.85 466.33,237.36 563.66,172.12 602.4,146.37 631.7,119.89 662,96.24" fill="none" stroke="#2a78d6" stroke-width="2" stroke-dasharray="6 4"/><circle cx="76" cy="278.05" r="3.5" fill="#2a78d6" stroke="#fcfcfb" stroke-width="2"><title>Default decode at 1KB: 50.1 ms</title></circle><circle cx="173.33" cy="275.55" r="3.5" fill="#2a78d6" stroke="#fcfcfb" stroke-width="2"><title>Default decode at 10KB: 53.8 ms</title></circle><circle cx="270.66" cy="278.3" r="3.5" fill="#2a78d6" stroke="#fcfcfb" stroke-width="2"><title>Default decode at 100KB: 49.7 ms</title></circle><circle cx="338.7" cy="271.47" r="3.5" fill="#2a78d6" stroke="#fcfcfb" stroke-width="2"><title>Default decode at 500KB: 60.5 ms</title></circle><circle cx="369" cy="282.85" r="3.5" fill="#2a78d6" stroke="#fcfcfb" stroke-width="2"><title>Default decode at 1MB: 43.6 ms</title></circle><circle cx="466.33" cy="237.36" r="3.5" fill="#2a78d6" stroke="#fcfcfb" stroke-width="2"><title>Default decode at 10MB: 161.4 ms</title></circle><circle cx="563.66" cy="172.12" r="3.5" fill="#2a78d6" stroke="#fcfcfb" stroke-width="2"><title>Default decode at 100MB: 1.06 s</title></circle><circle cx="602.4" cy="146.37" r="3.5" fill="#2a78d6" stroke="#fcfcfb" stroke-width="2"><title>Default decode at 250MB: 2.22 s</title></circle><circle cx="631.7" cy="119.89" r="3.5" fill="#2a78d6" stroke="#fcfcfb" stroke-width="2"><title>Default decode at 500MB: 4.75 s</title></circle><circle cx="662" cy="96.24" r="3.5" fill="#2a78d6" stroke="#fcfcfb" stroke-width="2"><title>Default decode at 1GB: 9.37 s</title></circle><polyline points="76,315.33 173.33,314.98 270.66,292.04 338.7,249.66 369,244.8 466.33,227.82 563.66,163.84 602.4,131.6 631.7,110.14 662,90.91" fill="none" stroke="#1baf7a" stroke-width="2"/><circle cx="76" cy="315.33" r="3.5" fill="#1baf7a" stroke="#fcfcfb" stroke-width="2"><title>Dense encode at 1KB: 17.1 ms</title></circle><circle cx="173.33" cy="314.98" r="3.5" fill="#1baf7a" stroke="#fcfcfb" stroke-width="2"><title>Dense encode at 10KB: 17.3 ms</title></circle><circle cx="270.66" cy="292.04" r="3.5" fill="#1baf7a" stroke="#fcfcfb" stroke-width="2"><title>Dense encode at 100KB: 33.5 ms</title></circle><circle cx="338.7" cy="249.66" r="3.5" fill="#1baf7a" stroke="#fcfcfb" stroke-width="2"><title>Dense encode at 500KB: 113.3 ms</title></circle><circle cx="369" cy="244.8" r="3.5" fill="#1baf7a" stroke="#fcfcfb" stroke-width="2"><title>Dense encode at 1MB: 130.3 ms</title></circle><circle cx="466.33" cy="227.82" r="3.5" fill="#1baf7a" stroke="#fcfcfb" stroke-width="2"><title>Dense encode at 10MB: 212.5 ms</title></circle><circle cx="563.66" cy="163.84" r="3.5" fill="#1baf7a" stroke="#fcfcfb" stroke-width="2"><title>Dense encode at 100MB: 1.34 s</title></circle><circle cx="602.4" cy="131.6" r="3.5" fill="#1baf7a" stroke="#fcfcfb" stroke-width="2"><title>Dense encode at 250MB: 3.39 s</title></circle><circle cx="631.7" cy="110.14" r="3.5" fill="#1baf7a" stroke="#fcfcfb" stroke-width="2"><title>Dense encode at 500MB: 6.28 s</title></circle><circle cx="662" cy="90.91" r="3.5" fill="#1baf7a" stroke="#fcfcfb" stroke-width="2"><title>Dense encode at 1GB: 10.93 s</title></circle><polyline points="76,275.64 173.33,273.73 270.66,272.11 338.7,274.81 369,271.72 466.33,255.13 563.66,200.83 602.4,171.86 631.7,147.97 662,123.37" fill="none" stroke="#1baf7a" stroke-width="2" stroke-dasharray="6 4"/><circle cx="76" cy="275.64" r="3.5" fill="#1baf7a" stroke="#fcfcfb" stroke-width="2"><title>Dense decode at 1KB: 53.6 ms</title></circle><circle cx="173.33" cy="273.73" r="3.5" fill="#1baf7a" stroke="#fcfcfb" stroke-width="2"><title>Dense decode at 10KB: 56.7 ms</title></circle><circle cx="270.66" cy="272.11" r="3.5" fill="#1baf7a" stroke="#fcfcfb" stroke-width="2"><title>Dense decode at 100KB: 59.4 ms</title></circle><circle cx="338.7" cy="274.81" r="3.5" fill="#1baf7a" stroke="#fcfcfb" stroke-width="2"><title>Dense decode at 500KB: 54.9 ms</title></circle><circle cx="369" cy="271.72" r="3.5" fill="#1baf7a" stroke="#fcfcfb" stroke-width="2"><title>Dense decode at 1MB: 60 ms</title></circle><circle cx="466.33" cy="255.13" r="3.5" fill="#1baf7a" stroke="#fcfcfb" stroke-width="2"><title>Dense decode at 10MB: 96.8 ms</title></circle><circle cx="563.66" cy="200.83" r="3.5" fill="#1baf7a" stroke="#fcfcfb" stroke-width="2"><title>Dense decode at 100MB: 461.9 ms</title></circle><circle cx="602.4" cy="171.86" r="3.5" fill="#1baf7a" stroke="#fcfcfb" stroke-width="2"><title>Dense decode at 250MB: 1.06 s</title></circle><circle cx="631.7" cy="147.97" r="3.5" fill="#1baf7a" stroke="#fcfcfb" stroke-width="2"><title>Dense decode at 500MB: 2.12 s</title></circle><circle cx="662" cy="123.37" r="3.5" fill="#1baf7a" stroke="#fcfcfb" stroke-width="2"><title>Dense decode at 1GB: 4.29 s</title></circle><polyline points="76,269.65 173.33,262.31 270.66,257.89 338.7,261.76 369,262.23 466.33,253.89 563.66,218.38 602.4,191.56 631.7,169.94 662,145.96" fill="none" stroke="#eda100" stroke-width="2"/><circle cx="76" cy="269.65" r="3.5" fill="#eda100" stroke="#fcfcfb" stroke-width="2"><title>Max4K encode at 1KB: 63.7 ms</title></circle><circle cx="173.33" cy="262.31" r="3.5" fill="#eda100" stroke="#fcfcfb" stroke-width="2"><title>Max4K encode at 10KB: 78.7 ms</title></circle><circle cx="270.66" cy="257.89" r="3.5" fill="#eda100" stroke="#fcfcfb" stroke-width="2"><title>Max4K encode at 100KB: 89.4 ms</title></circle><circle cx="338.7" cy="261.76" r="3.5" fill="#eda100" stroke="#fcfcfb" stroke-width="2"><title>Max4K encode at 500KB: 80 ms</title></circle><circle cx="369" cy="262.23" r="3.5" fill="#eda100" stroke="#fcfcfb" stroke-width="2"><title>Max4K encode at 1MB: 78.9 ms</title></circle><circle cx="466.33" cy="253.89" r="3.5" fill="#eda100" stroke="#fcfcfb" stroke-width="2"><title>Max4K encode at 10MB: 100.3 ms</title></circle><circle cx="563.66" cy="218.38" r="3.5" fill="#eda100" stroke="#fcfcfb" stroke-width="2"><title>Max4K encode at 100MB: 278.8 ms</title></circle><circle cx="602.4" cy="191.56" r="3.5" fill="#eda100" stroke="#fcfcfb" stroke-width="2"><title>Max4K encode at 250MB: 603.2 ms</title></circle><circle cx="631.7" cy="169.94" r="3.5" fill="#eda100" stroke="#fcfcfb" stroke-width="2"><title>Max4K encode at 500MB: 1.12 s</title></circle><circle cx="662" cy="145.96" r="3.5" fill="#eda100" stroke="#fcfcfb" stroke-width="2"><title>Max4K encode at 1GB: 2.24 s</title></circle><polyline points="76,250.79 173.33,245.46 270.66,246.63 338.7,245.05 369,247.23 466.33,243.15 563.66,217.92 602.4,187.4 631.7,164.66 662,143.27" fill="none" stroke="#eda100" stroke-width="2" stroke-dasharray="6 4"/><circle cx="76" cy="250.79" r="3.5" fill="#eda100" stroke="#fcfcfb" stroke-width="2"><title>Max4K decode at 1KB: 109.7 ms</title></circle><circle cx="173.33" cy="245.46" r="3.5" fill="#eda100" stroke="#fcfcfb" stroke-width="2"><title>Max4K decode at 10KB: 127.9 ms</title></circle><circle cx="270.66" cy="246.63" r="3.5" fill="#eda100" stroke="#fcfcfb" stroke-width="2"><title>Max4K decode at 100KB: 123.6 ms</title></circle><circle cx="338.7" cy="245.05" r="3.5" fill="#eda100" stroke="#fcfcfb" stroke-width="2"><title>Max4K decode at 500KB: 129.4 ms</title></circle><circle cx="369" cy="247.23" r="3.5" fill="#eda100" stroke="#fcfcfb" stroke-width="2"><title>Max4K decode at 1MB: 121.5 ms</title></circle><circle cx="466.33" cy="243.15" r="3.5" fill="#eda100" stroke="#fcfcfb" stroke-width="2"><title>Max4K decode at 10MB: 136.7 ms</title></circle><circle cx="563.66" cy="217.92" r="3.5" fill="#eda100" stroke="#fcfcfb" stroke-width="2"><title>Max4K decode at 100MB: 282.5 ms</title></circle><circle cx="602.4" cy="187.4" r="3.5" fill="#eda100" stroke="#fcfcfb" stroke-width="2"><title>Max4K decode at 250MB: 680 ms</title></circle><circle cx="631.7" cy="164.66" r="3.5" fill="#eda100" stroke="#fcfcfb" stroke-width="2"><title>Max4K decode at 500MB: 1.31 s</title></circle><circle cx="662" cy="143.27" r="3.5" fill="#eda100" stroke="#fcfcfb" stroke-width="2"><title>Max4K decode at 1GB: 2.42 s</title></circle><polyline points="76,261.26 173.33,257.6 270.66,257.48 338.7,254.79 369,255.39 466.33,254.5 563.66,210.78 602.4,189.72 631.7,166.68 662,139.36" fill="none" stroke="#008300" stroke-width="2"/><circle cx="76" cy="261.26" r="3.5" fill="#008300" stroke="#fcfcfb" stroke-width="2"><title>Max4K-R10 encode at 1KB: 81.1 ms</title></circle><circle cx="173.33" cy="257.6" r="3.5" fill="#008300" stroke="#fcfcfb" stroke-width="2"><title>Max4K-R10 encode at 10KB: 90.2 ms</title></circle><circle cx="270.66" cy="257.48" r="3.5" fill="#008300" stroke="#fcfcfb" stroke-width="2"><title>Max4K-R10 encode at 100KB: 90.5 ms</title></circle><circle cx="338.7" cy="254.79" r="3.5" fill="#008300" stroke="#fcfcfb" stroke-width="2"><title>Max4K-R10 encode at 500KB: 97.7 ms</title></circle><circle cx="369" cy="255.39" r="3.5" fill="#008300" stroke="#fcfcfb" stroke-width="2"><title>Max4K-R10 encode at 1MB: 96.1 ms</title></circle><circle cx="466.33" cy="254.5" r="3.5" fill="#008300" stroke="#fcfcfb" stroke-width="2"><title>Max4K-R10 encode at 10MB: 98.6 ms</title></circle><circle cx="563.66" cy="210.78" r="3.5" fill="#008300" stroke="#fcfcfb" stroke-width="2"><title>Max4K-R10 encode at 100MB: 347 ms</title></circle><circle cx="602.4" cy="189.72" r="3.5" fill="#008300" stroke="#fcfcfb" stroke-width="2"><title>Max4K-R10 encode at 250MB: 636 ms</title></circle><circle cx="631.7" cy="166.68" r="3.5" fill="#008300" stroke="#fcfcfb" stroke-width="2"><title>Max4K-R10 encode at 500MB: 1.23 s</title></circle><circle cx="662" cy="139.36" r="3.5" fill="#008300" stroke="#fcfcfb" stroke-width="2"><title>Max4K-R10 encode at 1GB: 2.71 s</title></circle><polyline points="76,246.51 173.33,244.71 270.66,242.93 338.7,241.66 369,245.95 466.33,242.08 563.66,208.94 602.4,186.16 631.7,164.57 662,141.09" fill="none" stroke="#008300" stroke-width="2" stroke-dasharray="6 4"/><circle cx="76" cy="246.51" r="3.5" fill="#008300" stroke="#fcfcfb" stroke-width="2"><title>Max4K-R10 decode at 1KB: 124.1 ms</title></circle><circle cx="173.33" cy="244.71" r="3.5" fill="#008300" stroke="#fcfcfb" stroke-width="2"><title>Max4K-R10 decode at 10KB: 130.6 ms</title></circle><circle cx="270.66" cy="242.93" r="3.5" fill="#008300" stroke="#fcfcfb" stroke-width="2"><title>Max4K-R10 decode at 100KB: 137.5 ms</title></circle><circle cx="338.7" cy="241.66" r="3.5" fill="#008300" stroke="#fcfcfb" stroke-width="2"><title>Max4K-R10 decode at 500KB: 142.6 ms</title></circle><circle cx="369" cy="245.95" r="3.5" fill="#008300" stroke="#fcfcfb" stroke-width="2"><title>Max4K-R10 decode at 1MB: 126.1 ms</title></circle><circle cx="466.33" cy="242.08" r="3.5" fill="#008300" stroke="#fcfcfb" stroke-width="2"><title>Max4K-R10 decode at 10MB: 140.9 ms</title></circle><circle cx="563.66" cy="208.94" r="3.5" fill="#008300" stroke="#fcfcfb" stroke-width="2"><title>Max4K-R10 decode at 100MB: 365.8 ms</title></circle><circle cx="602.4" cy="186.16" r="3.5" fill="#008300" stroke="#fcfcfb" stroke-width="2"><title>Max4K-R10 decode at 250MB: 704.6 ms</title></circle><circle cx="631.7" cy="164.57" r="3.5" fill="#008300" stroke="#fcfcfb" stroke-width="2"><title>Max4K-R10 decode at 500MB: 1.31 s</title></circle><circle cx="662" cy="141.09" r="3.5" fill="#008300" stroke="#fcfcfb" stroke-width="2"><title>Max4K-R10 decode at 1GB: 2.58 s</title></circle></g></svg>
