<svg xmlns="http://www.w3.org/2000/svg" viewBox="0 0 680 442" width="680" height="442" role="img" aria-label="Codec time by file size"><rect width="680" height="442" fill="#fcfcfb"/><text x="18" y="21" font-family="system-ui, -apple-system, Segoe UI, sans-serif" font-size="14.5" font-weight="600" fill="#0b0b0b">Codec time by file size</text><line x1="18" y1="35" x2="38" y2="35" stroke="#2a78d6" stroke-width="2.5"/><text x="44" y="39" font-family="system-ui, -apple-system, Segoe UI, sans-serif" font-size="11.5" fill="#52514e">Default encode</text><line x1="148.1" y1="35" x2="168.1" y2="35" stroke="#2a78d6" stroke-width="2.5" stroke-dasharray="5 3"/><text x="174.1" y="39" font-family="system-ui, -apple-system, Segoe UI, sans-serif" font-size="11.5" fill="#52514e">Default decode</text><line x1="278.2" y1="35" x2="298.2" y2="35" stroke="#1baf7a" stroke-width="2.5"/><text x="304.2" y="39" font-family="system-ui, -apple-system, Segoe UI, sans-serif" font-size="11.5" fill="#52514e">Dense encode</text><line x1="396" y1="35" x2="416" y2="35" stroke="#1baf7a" stroke-width="2.5" stroke-dasharray="5 3"/><text x="422" y="39" font-family="system-ui, -apple-system, Segoe UI, sans-serif" font-size="11.5" fill="#52514e">Dense decode</text><line x1="513.8" y1="35" x2="533.8" y2="35" stroke="#eda100" stroke-width="2.5"/><text x="539.8" y="39" font-family="system-ui, -apple-system, Segoe UI, sans-serif" font-size="11.5" fill="#52514e">Max4K encode</text><line x1="18" y1="51" x2="38" y2="51" stroke="#eda100" stroke-width="2.5" stroke-dasharray="5 3"/><text x="44" y="55" font-family="system-ui, -apple-system, Segoe UI, sans-serif" font-size="11.5" fill="#52514e">Max4K decode</text><line x1="135.8" y1="51" x2="155.8" y2="51" stroke="#008300" stroke-width="2.5"/><text x="161.8" y="55" font-family="system-ui, -apple-system, Segoe UI, sans-serif" font-size="11.5" fill="#52514e">Max4K-R10 encode</text><line x1="278.2" y1="51" x2="298.2" y2="51" stroke="#008300" stroke-width="2.5" stroke-dasharray="5 3"/><text x="304.2" y="55" font-family="system-ui, -apple-system, Segoe UI, sans-serif" font-size="11.5" fill="#52514e">Max4K-R10 decode</text><g transform="translate(0,62)"><line x1="76" y1="334" x2="662" y2="334" stroke="#e1e0d9" stroke-width="1"/><text x="68" y="337.5" fill="#898781" font-size="10.5" font-family="system-ui, -apple-system, Segoe UI, sans-serif" text-anchor="end">10 ms</text><line x1="76" y1="254" x2="662" y2="254" stroke="#e1e0d9" stroke-width="1"/><text x="68" y="257.5" fill="#898781" font-size="10.5" font-family="system-ui, -apple-system, Segoe UI, sans-serif" text-anchor="end">100 ms</text><line x1="76" y1="174" x2="662" y2="174" stroke="#e1e0d9" stroke-width="1"/><text x="68" y="177.5" fill="#898781" font-size="10.5" font-family="system-ui, -apple-system, Segoe UI, sans-serif" text-anchor="end">1 s</text><line x1="76" y1="94" x2="662" y2="94" stroke="#e1e0d9" stroke-width="1"/><text x="68" y="97.5" fill="#898781" font-size="10.5" font-family="system-ui, -apple-system, Segoe UI, sans-serif" text-anchor="end">10 s</text><line x1="76" y1="14" x2="662" y2="14" stroke="#e1e0d9" stroke-width="1"/><text x="68" y="17.5" fill="#898781" font-size="10.5" font-family="system-ui, -apple-system, Segoe UI, sans-serif" text-anchor="end">1.7 min</text><line x1="76" y1="14" x2="76" y2="334" stroke="#e1e0d9" stroke-width="1"/><text x="76" y="352" fill="#898781" font-size="10.5" font-family="system-ui, -apple-system, Segoe UI, sans-serif" text-anchor="middle">1KB</text><line x1="173.33" y1="14" x2="173.33" y2="334" stroke="#e1e0d9" stroke-width="1"/><text x="173.33" y="352" fill="#898781" font-size="10.5" font-family="system-ui, -apple-system, Segoe UI, sans-serif" text-anchor="middle">10KB</text><line x1="270.66" y1="14" x2="270.66" y2="334" stroke="#e1e0d9" stroke-width="1"/><text x="270.66" y="352" fill="#898781" font-size="10.5" font-family="system-ui, -apple-system, Segoe UI, sans-serif" text-anchor="middle">100KB</text><line x1="338.7" y1="14" x2="338.7" y2="334" stroke="#e1e0d9" stroke-width="1"/><text x="338.7" y="352" fill="#898781" font-size="10.5" font-family="system-ui, -apple-system, Segoe UI, sans-serif" text-anchor="middle">500KB</text><line x1="369" y1="14" x2="369" y2="334" stroke="#e1e0d9" stroke-width="1"/><text x="369" y="352" fill="#898781" font-size="10.5" font-family="system-ui, -apple-system, Segoe UI, sans-serif" text-anchor="middle">1MB</text><line x1="466.33" y1="14" x2="466.33" y2="334" stroke="#e1e0d9" stroke-width="1"/><text x="466.33" y="352" fill="#898781" font-size="10.5" font-family="system-ui, -apple-system, Segoe UI, sans-serif" text-anchor="middle">10MB</text><line x1="563.66" y1="14" x2="563.66" y2="334" stroke="#e1e0d9" stroke-width="1"/><text x="563.66" y="352" fill="#898781" font-size="10.5" font-family="system-ui, -apple-system, Segoe UI, sans-serif" text-anchor="middle">100MB</text><line x1="602.4" y1="14" x2="602.4" y2="334" stroke="#e1e0d9" stroke-width="1"/><text x="602.4" y="352" fill="#898781" font-size="10.5" font-family="system-ui, -apple-system, Segoe UI, sans-serif" text-anchor="middle">250MB</text><line x1="631.7" y1="14" x2="631.7" y2="334" stroke="#e1e0d9" stroke-width="1"/><text x="631.7" y="364" fill="#898781" font-size="10.5" font-family="system-ui, -apple-system, Segoe UI, sans-serif" text-anchor="middle">500MB</text><line x1="662" y1="14" x2="662" y2="334" stroke="#e1e0d9" stroke-width="1"/><text x="662" y="352" fill="#898781" font-size="10.5" font-family="system-ui, -apple-system, Segoe UI, sans-serif" text-anchor="middle">1GB</text><line x1="76" y1="334" x2="662" y2="334" stroke="#c3c2b7" stroke-width="1"/><polyline points="76,325.53 173.33,323.43 270.66,277.84 338.7,269.43 369,268.06 466.33,218.79 563.66,145.78 602.4,120.47 631.7,98.53 662,77.34" fill="none" stroke="#2a78d6" stroke-width="2"/><circle cx="76" cy="325.53" r="3.5" fill="#2a78d6" stroke="#fcfcfb" stroke-width="2"><title>Default encode at 1KB: 12.8 ms</title></circle><circle cx="173.33" cy="323.43" r="3.5" fill="#2a78d6" stroke="#fcfcfb" stroke-width="2"><title>Default encode at 10KB: 13.6 ms</title></circle><circle cx="270.66" cy="277.84" r="3.5" fill="#2a78d6" stroke="#fcfcfb" stroke-width="2"><title>Default encode at 100KB: 50.4 ms</title></circle><circle cx="338.7" cy="269.43" r="3.5" fill="#2a78d6" stroke="#fcfcfb" stroke-width="2"><title>Default encode at 500KB: 64.1 ms</title></circle><circle cx="369" cy="268.06" r="3.5" fill="#2a78d6" stroke="#fcfcfb" stroke-width="2"><title>Default encode at 1MB: 66.7 ms</title></circle><circle cx="466.33" cy="218.79" r="3.5" fill="#2a78d6" stroke="#fcfcfb" stroke-width="2"><title>Default encode at 10MB: 275.5 ms</title></circle><circle cx="563.66" cy="145.78" r="3.5" fill="#2a78d6" stroke="#fcfcfb" stroke-width="2"><title>Default encode at 100MB: 2.25 s</title></circle><circle cx="602.4" cy="120.47" r="3.5" fill="#2a78d6" stroke="#fcfcfb" stroke-width="2"><title>Default encode at 250MB: 4.67 s</title></circle><circle cx="631.7" cy="98.53" r="3.5" fill="#2a78d6" stroke="#fcfcfb" stroke-width="2"><title>Default encode at 500MB: 8.78 s</title></circle><circle cx="662" cy="77.34" r="3.5" fill="#2a78d6" stroke="#fcfcfb" stroke-width="2"><title>Default encode at 1GB: 16.15 s</title></circle><polyline points="76,280.52 173.33,278.25 270.66,280.81 338.7,278.03 369,283.82 466.33,221.25 563.66,177.27 602.4,146.68 631.7,119.12 662,97.99" fill="none" stroke="#2a78d6" stroke-width="2" stroke-dasharray="6 4"/><circle cx="76" cy="280.52" r="3.5" fill="#2a78d6" stroke="#fcfcfb" stroke-width="2"><title>Default decode at 1KB: 46.6 ms</title></circle><circle cx="173.33" cy="278.25" r="3.5" fill="#2a78d6" stroke="#fcfcfb" stroke-width="2"><title>Default decode at 10KB: 49.8 ms</title></circle><circle cx="270.66" cy="280.81" r="3.5" fill="#2a78d6" stroke="#fcfcfb" stroke-width="2"><title>Default decode at 100KB: 46.2 ms</title></circle><circle cx="338.7" cy="278.03" r="3.5" fill="#2a78d6" stroke="#fcfcfb" stroke-width="2"><title>Default decode at 500KB: 50.1 ms</title></circle><circle cx="369" cy="283.82" r="3.5" fill="#2a78d6" stroke="#fcfcfb" stroke-width="2"><title>Default decode at 1MB: 42.4 ms</title></circle><circle cx="466.33" cy="221.25" r="3.5" fill="#2a78d6" stroke="#fcfcfb" stroke-width="2"><title>Default decode at 10MB: 256.7 ms</title></circle><circle cx="563.66" cy="177.27" r="3.5" fill="#2a78d6" stroke="#fcfcfb" stroke-width="2"><title>Default decode at 100MB: 910.2 ms</title></circle><circle cx="602.4" cy="146.68" r="3.5" fill="#2a78d6" stroke="#fcfcfb" stroke-width="2"><title>Default decode at 250MB: 2.2 s</title></circle><circle cx="631.7" cy="119.12" r="3.5" fill="#2a78d6" stroke="#fcfcfb" stroke-width="2"><title>Default decode at 500MB: 4.85 s</title></circle><circle cx="662" cy="97.99" r="3.5" fill="#2a78d6" stroke="#fcfcfb" stroke-width="2"><title>Default decode at 1GB: 8.92 s</title></circle><polyline points="76,318.5 173.33,314.85 270.66,294.76 338.7,251.64 369,246.5 466.33,227.87 563.66,161.69 602.4,130.02 631.7,108.67 662,90.21" fill="none" stroke="#1baf7a" stroke-width="2"/><circle cx="76" cy="318.5" r="3.5" fill="#1baf7a" stroke="#fcfcfb" stroke-width="2"><title>Dense encode at 1KB: 15.6 ms</title></circle><circle cx="173.33" cy="314.85" r="3.5" fill="#1baf7a" stroke="#fcfcfb" stroke-width="2"><title>Dense encode at 10KB: 17.4 ms</title></circle><circle cx="270.66" cy="294.76" r="3.5" fill="#1baf7a" stroke="#fcfcfb" stroke-width="2"><title>Dense encode at 100KB: 30.9 ms</title></circle><circle cx="338.7" cy="251.64" r="3.5" fill="#1baf7a" stroke="#fcfcfb" stroke-width="2"><title>Dense encode at 500KB: 107 ms</title></circle><circle cx="369" cy="246.5" r="3.5" fill="#1baf7a" stroke="#fcfcfb" stroke-width="2"><title>Dense encode at 1MB: 124.1 ms</title></circle><circle cx="466.33" cy="227.87" r="3.5" fill="#1baf7a" stroke="#fcfcfb" stroke-width="2"><title>Dense encode at 10MB: 212.1 ms</title></circle><circle cx="563.66" cy="161.69" r="3.5" fill="#1baf7a" stroke="#fcfcfb" stroke-width="2"><title>Dense encode at 100MB: 1.43 s</title></circle><circle cx="602.4" cy="130.02" r="3.5" fill="#1baf7a" stroke="#fcfcfb" stroke-width="2"><title>Dense encode at 250MB: 3.55 s</title></circle><circle cx="631.7" cy="108.67" r="3.5" fill="#1baf7a" stroke="#fcfcfb" stroke-width="2"><title>Dense encode at 500MB: 6.56 s</title></circle><circle cx="662" cy="90.21" r="3.5" fill="#1baf7a" stroke="#fcfcfb" stroke-width="2"><title>Dense encode at 1GB: 11.15 s</title></circle><polyline points="76,277.2 173.33,276.73 270.66,273.12 338.7,276.76 369,273.57 466.33,262.73 563.66,200.78 602.4,172.98 631.7,149.04 662,125.19" fill="none" stroke="#1baf7a" stroke-width="2" stroke-dasharray="6 4"/><circle cx="76" cy="277.2" r="3.5" fill="#1baf7a" stroke="#fcfcfb" stroke-width="2"><title>Dense decode at 1KB: 51.3 ms</title></circle><circle cx="173.33" cy="276.73" r="3.5" fill="#1baf7a" stroke="#fcfcfb" stroke-width="2"><title>Dense decode at 10KB: 52 ms</title></circle><circle cx="270.66" cy="273.12" r="3.5" fill="#1baf7a" stroke="#fcfcfb" stroke-width="2"><title>Dense decode at 100KB: 57.7 ms</title></circle><circle cx="338.7" cy="276.76" r="3.5" fill="#1baf7a" stroke="#fcfcfb" stroke-width="2"><title>Dense decode at 500KB: 51.9 ms</title></circle><circle cx="369" cy="273.57" r="3.5" fill="#1baf7a" stroke="#fcfcfb" stroke-width="2"><title>Dense decode at 1MB: 56.9 ms</title></circle><circle cx="466.33" cy="262.73" r="3.5" fill="#1baf7a" stroke="#fcfcfb" stroke-width="2"><title>Dense decode at 10MB: 77.8 ms</title></circle><circle cx="563.66" cy="200.78" r="3.5" fill="#1baf7a" stroke="#fcfcfb" stroke-width="2"><title>Dense decode at 100MB: 462.7 ms</title></circle><circle cx="602.4" cy="172.98" r="3.5" fill="#1baf7a" stroke="#fcfcfb" stroke-width="2"><title>Dense decode at 250MB: 1.03 s</title></circle><circle cx="631.7" cy="149.04" r="3.5" fill="#1baf7a" stroke="#fcfcfb" stroke-width="2"><title>Dense decode at 500MB: 2.05 s</title></circle><circle cx="662" cy="125.19" r="3.5" fill="#1baf7a" stroke="#fcfcfb" stroke-width="2"><title>Dense decode at 1GB: 4.07 s</title></circle><polyline points="76,270.1 173.33,261.34 270.66,262.93 338.7,262.53 369,263.18 466.33,254.55 563.66,208.52 602.4,191.88 631.7,170.02 662,145.1" fill="none" stroke="#eda100" stroke-width="2"/><circle cx="76" cy="270.1" r="3.5" fill="#eda100" stroke="#fcfcfb" stroke-width="2"><title>Max4K encode at 1KB: 62.9 ms</title></circle><circle cx="173.33" cy="261.34" r="3.5" fill="#eda100" stroke="#fcfcfb" stroke-width="2"><title>Max4K encode at 10KB: 81 ms</title></circle><circle cx="270.66" cy="262.93" r="3.5" fill="#eda100" stroke="#fcfcfb" stroke-width="2"><title>Max4K encode at 100KB: 77.3 ms</title></circle><circle cx="338.7" cy="262.53" r="3.5" fill="#eda100" stroke="#fcfcfb" stroke-width="2"><title>Max4K encode at 500KB: 78.2 ms</title></circle><circle cx="369" cy="263.18" r="3.5" fill="#eda100" stroke="#fcfcfb" stroke-width="2"><title>Max4K encode at 1MB: 76.8 ms</title></circle><circle cx="466.33" cy="254.55" r="3.5" fill="#eda100" stroke="#fcfcfb" stroke-width="2"><title>Max4K encode at 10MB: 98.4 ms</title></circle><circle cx="563.66" cy="208.52" r="3.5" fill="#eda100" stroke="#fcfcfb" stroke-width="2"><title>Max4K encode at 100MB: 370.3 ms</title></circle><circle cx="602.4" cy="191.88" r="3.5" fill="#eda100" stroke="#fcfcfb" stroke-width="2"><title>Max4K encode at 250MB: 597.7 ms</title></circle><circle cx="631.7" cy="170.02" r="3.5" fill="#eda100" stroke="#fcfcfb" stroke-width="2"><title>Max4K encode at 500MB: 1.12 s</title></circle><circle cx="662" cy="145.1" r="3.5" fill="#eda100" stroke="#fcfcfb" stroke-width="2"><title>Max4K encode at 1GB: 2.3 s</title></circle><polyline points="76,248.55 173.33,255.78 270.66,254.5 338.7,251.73 369,250.94 466.33,239.63 563.66,197.73 602.4,171.07 631.7,150.7 662,125.66" fill="none" stroke="#eda100" stroke-width="2" stroke-dasharray="6 4"/><circle cx="76" cy="248.55" r="3.5" fill="#eda100" stroke="#fcfcfb" stroke-width="2"><title>Max4K decode at 1KB: 117 ms</title></circle><circle cx="173.33" cy="255.78" r="3.5" fill="#eda100" stroke="#fcfcfb" stroke-width="2"><title>Max4K decode at 10KB: 95 ms</title></circle><circle cx="270.66" cy="254.5" r="3.5" fill="#eda100" stroke="#fcfcfb" stroke-width="2"><title>Max4K decode at 100KB: 98.6 ms</title></circle><circle cx="338.7" cy="251.73" r="3.5" fill="#eda100" stroke="#fcfcfb" stroke-width="2"><title>Max4K decode at 500KB: 106.7 ms</title></circle><circle cx="369" cy="250.94" r="3.5" fill="#eda100" stroke="#fcfcfb" stroke-width="2"><title>Max4K decode at 1MB: 109.2 ms</title></circle><circle cx="466.33" cy="239.63" r="3.5" fill="#eda100" stroke="#fcfcfb" stroke-width="2"><title>Max4K decode at 10MB: 151.2 ms</title></circle><circle cx="563.66" cy="197.73" r="3.5" fill="#eda100" stroke="#fcfcfb" stroke-width="2"><title>Max4K decode at 100MB: 505.1 ms</title></circle><circle cx="602.4" cy="171.07" r="3.5" fill="#eda100" stroke="#fcfcfb" stroke-width="2"><title>Max4K decode at 250MB: 1.09 s</title></circle><circle cx="631.7" cy="150.7" r="3.5" fill="#eda100" stroke="#fcfcfb" stroke-width="2"><title>Max4K decode at 500MB: 1.96 s</title></circle><circle cx="662" cy="125.66" r="3.5" fill="#eda100" stroke="#fcfcfb" stroke-width="2"><title>Max4K decode at 1GB: 4.02 s</title></circle><polyline points="76,252.95 173.33,258.76 270.66,257.29 338.7,257.17 369,256.27 466.33,240.06 563.66,211.2 602.4,188.37 631.7,165.95 662,136.81" fill="none" stroke="#008300" stroke-width="2"/><circle cx="76" cy="252.95" r="3.5" fill="#008300" stroke="#fcfcfb" stroke-width="2"><title>Max4K-R10 encode at 1KB: 103.1 ms</title></circle><circle cx="173.33" cy="258.76" r="3.5" fill="#008300" stroke="#fcfcfb" stroke-width="2"><title>Max4K-R10 encode at 10KB: 87.2 ms</title></circle><circle cx="270.66" cy="257.29" r="3.5" fill="#008300" stroke="#fcfcfb" stroke-width="2"><title>Max4K-R10 encode at 100KB: 91 ms</title></circle><circle cx="338.7" cy="257.17" r="3.5" fill="#008300" stroke="#fcfcfb" stroke-width="2"><title>Max4K-R10 encode at 500KB: 91.3 ms</title></circle><circle cx="369" cy="256.27" r="3.5" fill="#008300" stroke="#fcfcfb" stroke-width="2"><title>Max4K-R10 encode at 1MB: 93.7 ms</title></circle><circle cx="466.33" cy="240.06" r="3.5" fill="#008300" stroke="#fcfcfb" stroke-width="2"><title>Max4K-R10 encode at 10MB: 149.4 ms</title></circle><circle cx="563.66" cy="211.2" r="3.5" fill="#008300" stroke="#fcfcfb" stroke-width="2"><title>Max4K-R10 encode at 100MB: 342.7 ms</title></circle><circle cx="602.4" cy="188.37" r="3.5" fill="#008300" stroke="#fcfcfb" stroke-width="2"><title>Max4K-R10 encode at 250MB: 661.3 ms</title></circle><circle cx="631.7" cy="165.95" r="3.5" fill="#008300" stroke="#fcfcfb" stroke-width="2"><title>Max4K-R10 encode at 500MB: 1.26 s</title></circle><circle cx="662" cy="136.81" r="3.5" fill="#008300" stroke="#fcfcfb" stroke-width="2"><title>Max4K-R10 encode at 1GB: 2.92 s</title></circle><polyline points="76,245.23 173.33,244.77 270.66,245.31 338.7,244.79 369,244.88 466.33,238.37 563.66,194.65 602.4,168.56 631.7,148.25 662,123.22" fill="none" stroke="#008300" stroke-width="2" stroke-dasharray="6 4"/><circle cx="76" cy="245.23" r="3.5" fill="#008300" stroke="#fcfcfb" stroke-width="2"><title>Max4K-R10 decode at 1KB: 128.7 ms</title></circle><circle cx="173.33" cy="244.77" r="3.5" fill="#008300" stroke="#fcfcfb" stroke-width="2"><title>Max4K-R10 decode at 10KB: 130.4 ms</title></circle><circle cx="270.66" cy="245.31" r="3.5" fill="#008300" stroke="#fcfcfb" stroke-width="2"><title>Max4K-R10 decode at 100KB: 128.4 ms</title></circle><circle cx="338.7" cy="244.79" r="3.5" fill="#008300" stroke="#fcfcfb" stroke-width="2"><title>Max4K-R10 decode at 500KB: 130.3 ms</title></circle><circle cx="369" cy="244.88" r="3.5" fill="#008300" stroke="#fcfcfb" stroke-width="2"><title>Max4K-R10 decode at 1MB: 130 ms</title></circle><circle cx="466.33" cy="238.37" r="3.5" fill="#008300" stroke="#fcfcfb" stroke-width="2"><title>Max4K-R10 decode at 10MB: 156.8 ms</title></circle><circle cx="563.66" cy="194.65" r="3.5" fill="#008300" stroke="#fcfcfb" stroke-width="2"><title>Max4K-R10 decode at 100MB: 551.9 ms</title></circle><circle cx="602.4" cy="168.56" r="3.5" fill="#008300" stroke="#fcfcfb" stroke-width="2"><title>Max4K-R10 decode at 250MB: 1.17 s</title></circle><circle cx="631.7" cy="148.25" r="3.5" fill="#008300" stroke="#fcfcfb" stroke-width="2"><title>Max4K-R10 decode at 500MB: 2.1 s</title></circle><circle cx="662" cy="123.22" r="3.5" fill="#008300" stroke="#fcfcfb" stroke-width="2"><title>Max4K-R10 decode at 1GB: 4.31 s</title></circle></g></svg>
