<svg xmlns="http://www.w3.org/2000/svg" viewBox="0 0 680 442" width="680" height="442" role="img" aria-label="Codec time by file size"><rect width="680" height="442" fill="#1a1a19"/><text x="18" y="21" font-family="system-ui, -apple-system, Segoe UI, sans-serif" font-size="14.5" font-weight="600" fill="#ffffff">Codec time by file size</text><line x1="18" y1="35" x2="38" y2="35" stroke="#3987e5" stroke-width="2.5"/><text x="44" y="39" font-family="system-ui, -apple-system, Segoe UI, sans-serif" font-size="11.5" fill="#c3c2b7">Default encode</text><line x1="148.1" y1="35" x2="168.1" y2="35" stroke="#3987e5" stroke-width="2.5" stroke-dasharray="5 3"/><text x="174.1" y="39" font-family="system-ui, -apple-system, Segoe UI, sans-serif" font-size="11.5" fill="#c3c2b7">Default decode</text><line x1="278.2" y1="35" x2="298.2" y2="35" stroke="#199e70" stroke-width="2.5"/><text x="304.2" y="39" font-family="system-ui, -apple-system, Segoe UI, sans-serif" font-size="11.5" fill="#c3c2b7">Dense encode</text><line x1="396" y1="35" x2="416" y2="35" stroke="#199e70" stroke-width="2.5" stroke-dasharray="5 3"/><text x="422" y="39" font-family="system-ui, -apple-system, Segoe UI, sans-serif" font-size="11.5" fill="#c3c2b7">Dense decode</text><line x1="513.8" y1="35" x2="533.8" y2="35" stroke="#c98500" stroke-width="2.5"/><text x="539.8" y="39" font-family="system-ui, -apple-system, Segoe UI, sans-serif" font-size="11.5" fill="#c3c2b7">Max4K encode</text><line x1="18" y1="51" x2="38" y2="51" stroke="#c98500" stroke-width="2.5" stroke-dasharray="5 3"/><text x="44" y="55" font-family="system-ui, -apple-system, Segoe UI, sans-serif" font-size="11.5" fill="#c3c2b7">Max4K decode</text><line x1="135.8" y1="51" x2="155.8" y2="51" stroke="#008300" stroke-width="2.5"/><text x="161.8" y="55" font-family="system-ui, -apple-system, Segoe UI, sans-serif" font-size="11.5" fill="#c3c2b7">Max4K-R10 encode</text><line x1="278.2" y1="51" x2="298.2" y2="51" stroke="#008300" stroke-width="2.5" stroke-dasharray="5 3"/><text x="304.2" y="55" font-family="system-ui, -apple-system, Segoe UI, sans-serif" font-size="11.5" fill="#c3c2b7">Max4K-R10 decode</text><g transform="translate(0,62)"><line x1="76" y1="334" x2="662" y2="334" stroke="#2c2c2a" stroke-width="1"/><text x="68" y="337.5" fill="#898781" font-size="10.5" font-family="system-ui, -apple-system, Segoe UI, sans-serif" text-anchor="end">10 ms</text><line x1="76" y1="227.33" x2="662" y2="227.33" stroke="#2c2c2a" stroke-width="1"/><text x="68" y="230.83" fill="#898781" font-size="10.5" font-family="system-ui, -apple-system, Segoe UI, sans-serif" text-anchor="end">100 ms</text><line x1="76" y1="120.67" x2="662" y2="120.67" stroke="#2c2c2a" stroke-width="1"/><text x="68" y="124.17" fill="#898781" font-size="10.5" font-family="system-ui, -apple-system, Segoe UI, sans-serif" text-anchor="end">1 s</text><line x1="76" y1="14" x2="662" y2="14" stroke="#2c2c2a" stroke-width="1"/><text x="68" y="17.5" fill="#898781" font-size="10.5" font-family="system-ui, -apple-system, Segoe UI, sans-serif" text-anchor="end">10 s</text><line x1="76" y1="14" x2="76" y2="334" stroke="#2c2c2a" stroke-width="1"/><text x="76" y="352" fill="#898781" font-size="10.5" font-family="system-ui, -apple-system, Segoe UI, sans-serif" text-anchor="middle">1KB</text><line x1="192.96" y1="14" x2="192.96" y2="334" stroke="#2c2c2a" stroke-width="1"/><text x="192.96" y="352" fill="#898781" font-size="10.5" font-family="system-ui, -apple-system, Segoe UI, sans-serif" text-anchor="middle">10KB</text><line x1="309.92" y1="14" x2="309.92" y2="334" stroke="#2c2c2a" stroke-width="1"/><text x="309.92" y="352" fill="#898781" font-size="10.5" font-family="system-ui, -apple-system, Segoe UI, sans-serif" text-anchor="middle">100KB</text><line x1="391.67" y1="14" x2="391.67" y2="334" stroke="#2c2c2a" stroke-width="1"/><text x="391.67" y="352" fill="#898781" font-size="10.5" font-family="system-ui, -apple-system, Segoe UI, sans-serif" text-anchor="middle">500KB</text><line x1="428.08" y1="14" x2="428.08" y2="334" stroke="#2c2c2a" stroke-width="1"/><text x="428.08" y="352" fill="#898781" font-size="10.5" font-family="system-ui, -apple-system, Segoe UI, sans-serif" text-anchor="middle">1MB</text><line x1="545.04" y1="14" x2="545.04" y2="334" stroke="#2c2c2a" stroke-width="1"/><text x="545.04" y="352" fill="#898781" font-size="10.5" font-family="system-ui, -apple-system, Segoe UI, sans-serif" text-anchor="middle">10MB</text><line x1="662" y1="14" x2="662" y2="334" stroke="#2c2c2a" stroke-width="1"/><text x="662" y="352" fill="#898781" font-size="10.5" font-family="system-ui, -apple-system, Segoe UI, sans-serif" text-anchor="middle">100MB</text><line x1="76" y1="334" x2="662" y2="334" stroke="#383835" stroke-width="1"/><polyline points="76,329.01 192.96,315.72 309.92,259.28 391.67,247.51 428.08,243.9 545.04,182.42 662,81.04" fill="none" stroke="#3987e5" stroke-width="2"/><circle cx="76" cy="329.01" r="3.5" fill="#3987e5" stroke="#1a1a19" stroke-width="2"><title>Default encode at 1KB: 11.1 ms</title></circle><circle cx="192.96" cy="315.72" r="3.5" fill="#3987e5" stroke="#1a1a19" stroke-width="2"><title>Default encode at 10KB: 14.8 ms</title></circle><circle cx="309.92" cy="259.28" r="3.5" fill="#3987e5" stroke="#1a1a19" stroke-width="2"><title>Default encode at 100KB: 50.2 ms</title></circle><circle cx="391.67" cy="247.51" r="3.5" fill="#3987e5" stroke="#1a1a19" stroke-width="2"><title>Default encode at 500KB: 64.7 ms</title></circle><circle cx="428.08" cy="243.9" r="3.5" fill="#3987e5" stroke="#1a1a19" stroke-width="2"><title>Default encode at 1MB: 69.9 ms</title></circle><circle cx="545.04" cy="182.42" r="3.5" fill="#3987e5" stroke="#1a1a19" stroke-width="2"><title>Default encode at 10MB: 263.6 ms</title></circle><circle cx="662" cy="81.04" r="3.5" fill="#3987e5" stroke="#1a1a19" stroke-width="2"><title>Default encode at 100MB: 2.35 s</title></circle><polyline points="76,259.32 192.96,255.17 309.92,260.61 391.67,254.34 428.08,253.26 545.04,201.03 662,107.87" fill="none" stroke="#3987e5" stroke-width="2" stroke-dasharray="6 4"/><circle cx="76" cy="259.32" r="3.5" fill="#3987e5" stroke="#1a1a19" stroke-width="2"><title>Default decode at 1KB: 50.1 ms</title></circle><circle cx="192.96" cy="255.17" r="3.5" fill="#3987e5" stroke="#1a1a19" stroke-width="2"><title>Default decode at 10KB: 54.8 ms</title></circle><circle cx="309.92" cy="260.61" r="3.5" fill="#3987e5" stroke="#1a1a19" stroke-width="2"><title>Default decode at 100KB: 48.8 ms</title></circle><circle cx="391.67" cy="254.34" r="3.5" fill="#3987e5" stroke="#1a1a19" stroke-width="2"><title>Default decode at 500KB: 55.8 ms</title></circle><circle cx="428.08" cy="253.26" r="3.5" fill="#3987e5" stroke="#1a1a19" stroke-width="2"><title>Default decode at 1MB: 57.1 ms</title></circle><circle cx="545.04" cy="201.03" r="3.5" fill="#3987e5" stroke="#1a1a19" stroke-width="2"><title>Default decode at 10MB: 176.4 ms</title></circle><circle cx="662" cy="107.87" r="3.5" fill="#3987e5" stroke="#1a1a19" stroke-width="2"><title>Default decode at 100MB: 1.32 s</title></circle><polyline points="76,315.14 192.96,306.2 309.92,281.55 391.67,219.6 428.08,215.89 545.04,190.02 662,102.95" fill="none" stroke="#199e70" stroke-width="2"/><circle cx="76" cy="315.14" r="3.5" fill="#199e70" stroke="#1a1a19" stroke-width="2"><title>Dense encode at 1KB: 15 ms</title></circle><circle cx="192.96" cy="306.2" r="3.5" fill="#199e70" stroke="#1a1a19" stroke-width="2"><title>Dense encode at 10KB: 18.2 ms</title></circle><circle cx="309.92" cy="281.55" r="3.5" fill="#199e70" stroke="#1a1a19" stroke-width="2"><title>Dense encode at 100KB: 31 ms</title></circle><circle cx="391.67" cy="219.6" r="3.5" fill="#199e70" stroke="#1a1a19" stroke-width="2"><title>Dense encode at 500KB: 118.2 ms</title></circle><circle cx="428.08" cy="215.89" r="3.5" fill="#199e70" stroke="#1a1a19" stroke-width="2"><title>Dense encode at 1MB: 128 ms</title></circle><circle cx="545.04" cy="190.02" r="3.5" fill="#199e70" stroke="#1a1a19" stroke-width="2"><title>Dense encode at 10MB: 223.8 ms</title></circle><circle cx="662" cy="102.95" r="3.5" fill="#199e70" stroke="#1a1a19" stroke-width="2"><title>Dense encode at 100MB: 1.47 s</title></circle><polyline points="76,253.71 192.96,255.68 309.92,251.49 391.67,253.97 428.08,250.75 545.04,231.12 662,143.53" fill="none" stroke="#199e70" stroke-width="2" stroke-dasharray="6 4"/><circle cx="76" cy="253.71" r="3.5" fill="#199e70" stroke="#1a1a19" stroke-width="2"><title>Dense decode at 1KB: 56.6 ms</title></circle><circle cx="192.96" cy="255.68" r="3.5" fill="#199e70" stroke="#1a1a19" stroke-width="2"><title>Dense decode at 10KB: 54.2 ms</title></circle><circle cx="309.92" cy="251.49" r="3.5" fill="#199e70" stroke="#1a1a19" stroke-width="2"><title>Dense decode at 100KB: 59.4 ms</title></circle><circle cx="391.67" cy="253.97" r="3.5" fill="#199e70" stroke="#1a1a19" stroke-width="2"><title>Dense decode at 500KB: 56.3 ms</title></circle><circle cx="428.08" cy="250.75" r="3.5" fill="#199e70" stroke="#1a1a19" stroke-width="2"><title>Dense decode at 1MB: 60.3 ms</title></circle><circle cx="545.04" cy="231.12" r="3.5" fill="#199e70" stroke="#1a1a19" stroke-width="2"><title>Dense decode at 10MB: 92.1 ms</title></circle><circle cx="662" cy="143.53" r="3.5" fill="#199e70" stroke="#1a1a19" stroke-width="2"><title>Dense decode at 100MB: 610.5 ms</title></circle><polyline points="76,238.62 192.96,246.3 309.92,234.22 391.67,234.82 428.08,238.33 545.04,206.51 662,182.21" fill="none" stroke="#c98500" stroke-width="2"/><circle cx="76" cy="238.62" r="3.5" fill="#c98500" stroke="#1a1a19" stroke-width="2"><title>Max4K encode at 1KB: 78.4 ms</title></circle><circle cx="192.96" cy="246.3" r="3.5" fill="#c98500" stroke="#1a1a19" stroke-width="2"><title>Max4K encode at 10KB: 66.4 ms</title></circle><circle cx="309.92" cy="234.22" r="3.5" fill="#c98500" stroke="#1a1a19" stroke-width="2"><title>Max4K encode at 100KB: 86.2 ms</title></circle><circle cx="391.67" cy="234.82" r="3.5" fill="#c98500" stroke="#1a1a19" stroke-width="2"><title>Max4K encode at 500KB: 85.1 ms</title></circle><circle cx="428.08" cy="238.33" r="3.5" fill="#c98500" stroke="#1a1a19" stroke-width="2"><title>Max4K encode at 1MB: 78.9 ms</title></circle><circle cx="545.04" cy="206.51" r="3.5" fill="#c98500" stroke="#1a1a19" stroke-width="2"><title>Max4K encode at 10MB: 156.7 ms</title></circle><circle cx="662" cy="182.21" r="3.5" fill="#c98500" stroke="#1a1a19" stroke-width="2"><title>Max4K encode at 100MB: 264.9 ms</title></circle><polyline points="76,223.31 192.96,219.16 309.92,219.92 391.67,214.29 428.08,217.62 545.04,213.46 662,160.88" fill="none" stroke="#c98500" stroke-width="2" stroke-dasharray="6 4"/><circle cx="76" cy="223.31" r="3.5" fill="#c98500" stroke="#1a1a19" stroke-width="2"><title>Max4K decode at 1KB: 109.1 ms</title></circle><circle cx="192.96" cy="219.16" r="3.5" fill="#c98500" stroke="#1a1a19" stroke-width="2"><title>Max4K decode at 10KB: 119.3 ms</title></circle><circle cx="309.92" cy="219.92" r="3.5" fill="#c98500" stroke="#1a1a19" stroke-width="2"><title>Max4K decode at 100KB: 117.4 ms</title></circle><circle cx="391.67" cy="214.29" r="3.5" fill="#c98500" stroke="#1a1a19" stroke-width="2"><title>Max4K decode at 500KB: 132.5 ms</title></circle><circle cx="428.08" cy="217.62" r="3.5" fill="#c98500" stroke="#1a1a19" stroke-width="2"><title>Max4K decode at 1MB: 123.3 ms</title></circle><circle cx="545.04" cy="213.46" r="3.5" fill="#c98500" stroke="#1a1a19" stroke-width="2"><title>Max4K decode at 10MB: 134.9 ms</title></circle><circle cx="662" cy="160.88" r="3.5" fill="#c98500" stroke="#1a1a19" stroke-width="2"><title>Max4K decode at 100MB: 419.7 ms</title></circle><polyline points="76,227.13 192.96,229.4 309.92,227.77 391.67,237.36 428.08,223.09 545.04,204.1 662,173.24" fill="none" stroke="#008300" stroke-width="2"/><circle cx="76" cy="227.13" r="3.5" fill="#008300" stroke="#1a1a19" stroke-width="2"><title>Max4K-R10 encode at 1KB: 100.4 ms</title></circle><circle cx="192.96" cy="229.4" r="3.5" fill="#008300" stroke="#1a1a19" stroke-width="2"><title>Max4K-R10 encode at 10KB: 95.6 ms</title></circle><circle cx="309.92" cy="227.77" r="3.5" fill="#008300" stroke="#1a1a19" stroke-width="2"><title>Max4K-R10 encode at 100KB: 99.1 ms</title></circle><circle cx="391.67" cy="237.36" r="3.5" fill="#008300" stroke="#1a1a19" stroke-width="2"><title>Max4K-R10 encode at 500KB: 80.5 ms</title></circle><circle cx="428.08" cy="223.09" r="3.5" fill="#008300" stroke="#1a1a19" stroke-width="2"><title>Max4K-R10 encode at 1MB: 109.6 ms</title></circle><circle cx="545.04" cy="204.1" r="3.5" fill="#008300" stroke="#1a1a19" stroke-width="2"><title>Max4K-R10 encode at 10MB: 165.1 ms</title></circle><circle cx="662" cy="173.24" r="3.5" fill="#008300" stroke="#1a1a19" stroke-width="2"><title>Max4K-R10 encode at 100MB: 321.4 ms</title></circle><polyline points="76,215.91 192.96,215.82 309.92,215.42 391.67,213.21 428.08,214.29 545.04,209.57 662,164.93" fill="none" stroke="#008300" stroke-width="2" stroke-dasharray="6 4"/><circle cx="76" cy="215.91" r="3.5" fill="#008300" stroke="#1a1a19" stroke-width="2"><title>Max4K-R10 decode at 1KB: 128 ms</title></circle><circle cx="192.96" cy="215.82" r="3.5" fill="#008300" stroke="#1a1a19" stroke-width="2"><title>Max4K-R10 decode at 10KB: 128.2 ms</title></circle><circle cx="309.92" cy="215.42" r="3.5" fill="#008300" stroke="#1a1a19" stroke-width="2"><title>Max4K-R10 decode at 100KB: 129.3 ms</title></circle><circle cx="391.67" cy="213.21" r="3.5" fill="#008300" stroke="#1a1a19" stroke-width="2"><title>Max4K-R10 decode at 500KB: 135.6 ms</title></circle><circle cx="428.08" cy="214.29" r="3.5" fill="#008300" stroke="#1a1a19" stroke-width="2"><title>Max4K-R10 decode at 1MB: 132.5 ms</title></circle><circle cx="545.04" cy="209.57" r="3.5" fill="#008300" stroke="#1a1a19" stroke-width="2"><title>Max4K-R10 decode at 10MB: 146.7 ms</title></circle><circle cx="662" cy="164.93" r="3.5" fill="#008300" stroke="#1a1a19" stroke-width="2"><title>Max4K-R10 decode at 100MB: 384.6 ms</title></circle></g></svg>
