<svg xmlns="http://www.w3.org/2000/svg" viewBox="0 0 680 442" width="680" height="442" role="img" aria-label="Codec time by file size"><rect width="680" height="442" fill="#fcfcfb"/><text x="18" y="21" font-family="system-ui, -apple-system, Segoe UI, sans-serif" font-size="14.5" font-weight="600" fill="#0b0b0b">Codec time by file size</text><line x1="18" y1="35" x2="38" y2="35" stroke="#2a78d6" stroke-width="2.5"/><text x="44" y="39" font-family="system-ui, -apple-system, Segoe UI, sans-serif" font-size="11.5" fill="#52514e">Default encode</text><line x1="148.1" y1="35" x2="168.1" y2="35" stroke="#2a78d6" stroke-width="2.5" stroke-dasharray="5 3"/><text x="174.1" y="39" font-family="system-ui, -apple-system, Segoe UI, sans-serif" font-size="11.5" fill="#52514e">Default decode</text><line x1="278.2" y1="35" x2="298.2" y2="35" stroke="#1baf7a" stroke-width="2.5"/><text x="304.2" y="39" font-family="system-ui, -apple-system, Segoe UI, sans-serif" font-size="11.5" fill="#52514e">Dense encode</text><line x1="396" y1="35" x2="416" y2="35" stroke="#1baf7a" stroke-width="2.5" stroke-dasharray="5 3"/><text x="422" y="39" font-family="system-ui, -apple-system, Segoe UI, sans-serif" font-size="11.5" fill="#52514e">Dense decode</text><line x1="513.8" y1="35" x2="533.8" y2="35" stroke="#eda100" stroke-width="2.5"/><text x="539.8" y="39" font-family="system-ui, -apple-system, Segoe UI, sans-serif" font-size="11.5" fill="#52514e">Max4K encode</text><line x1="18" y1="51" x2="38" y2="51" stroke="#eda100" stroke-width="2.5" stroke-dasharray="5 3"/><text x="44" y="55" font-family="system-ui, -apple-system, Segoe UI, sans-serif" font-size="11.5" fill="#52514e">Max4K decode</text><line x1="135.8" y1="51" x2="155.8" y2="51" stroke="#008300" stroke-width="2.5"/><text x="161.8" y="55" font-family="system-ui, -apple-system, Segoe UI, sans-serif" font-size="11.5" fill="#52514e">Max4K-R10 encode</text><line x1="278.2" y1="51" x2="298.2" y2="51" stroke="#008300" stroke-width="2.5" stroke-dasharray="5 3"/><text x="304.2" y="55" font-family="system-ui, -apple-system, Segoe UI, sans-serif" font-size="11.5" fill="#52514e">Max4K-R10 decode</text><g transform="translate(0,62)"><line x1="76" y1="334" x2="662" y2="334" stroke="#e1e0d9" stroke-width="1"/><text x="68" y="337.5" fill="#898781" font-size="10.5" font-family="system-ui, -apple-system, Segoe UI, sans-serif" text-anchor="end">10 ms</text><line x1="76" y1="254" x2="662" y2="254" stroke="#e1e0d9" stroke-width="1"/><text x="68" y="257.5" fill="#898781" font-size="10.5" font-family="system-ui, -apple-system, Segoe UI, sans-serif" text-anchor="end">100 ms</text><line x1="76" y1="174" x2="662" y2="174" stroke="#e1e0d9" stroke-width="1"/><text x="68" y="177.5" fill="#898781" font-size="10.5" font-family="system-ui, -apple-system, Segoe UI, sans-serif" text-anchor="end">1 s</text><line x1="76" y1="94" x2="662" y2="94" stroke="#e1e0d9" stroke-width="1"/><text x="68" y="97.5" fill="#898781" font-size="10.5" font-family="system-ui, -apple-system, Segoe UI, sans-serif" text-anchor="end">10 s</text><line x1="76" y1="14" x2="662" y2="14" stroke="#e1e0d9" stroke-width="1"/><text x="68" y="17.5" fill="#898781" font-size="10.5" font-family="system-ui, -apple-system, Segoe UI, sans-serif" text-anchor="end">1.7 min</text><line x1="76" y1="14" x2="76" y2="334" stroke="#e1e0d9" stroke-width="1"/><text x="76" y="352" fill="#898781" font-size="10.5" font-family="system-ui, -apple-system, Segoe UI, sans-serif" text-anchor="middle">1KB</text><line x1="173.33" y1="14" x2="173.33" y2="334" stroke="#e1e0d9" stroke-width="1"/><text x="173.33" y="352" fill="#898781" font-size="10.5" font-family="system-ui, -apple-system, Segoe UI, sans-serif" text-anchor="middle">10KB</text><line x1="270.66" y1="14" x2="270.66" y2="334" stroke="#e1e0d9" stroke-width="1"/><text x="270.66" y="352" fill="#898781" font-size="10.5" font-family="system-ui, -apple-system, Segoe UI, sans-serif" text-anchor="middle">100KB</text><line x1="338.7" y1="14" x2="338.7" y2="334" stroke="#e1e0d9" stroke-width="1"/><text x="338.7" y="352" fill="#898781" font-size="10.5" font-family="system-ui, -apple-system, Segoe UI, sans-serif" text-anchor="middle">500KB</text><line x1="369" y1="14" x2="369" y2="334" stroke="#e1e0d9" stroke-width="1"/><text x="369" y="352" fill="#898781" font-size="10.5" font-family="system-ui, -apple-system, Segoe UI, sans-serif" text-anchor="middle">1MB</text><line x1="466.33" y1="14" x2="466.33" y2="334" stroke="#e1e0d9" stroke-width="1"/><text x="466.33" y="352" fill="#898781" font-size="10.5" font-family="system-ui, -apple-system, Segoe UI, sans-serif" text-anchor="middle">10MB</text><line x1="563.66" y1="14" x2="563.66" y2="334" stroke="#e1e0d9" stroke-width="1"/><text x="563.66" y="352" fill="#898781" font-size="10.5" font-family="system-ui, -apple-system, Segoe UI, sans-serif" text-anchor="middle">100MB</text><line x1="602.4" y1="14" x2="602.4" y2="334" stroke="#e1e0d9" stroke-width="1"/><text x="602.4" y="352" fill="#898781" font-size="10.5" font-family="system-ui, -apple-system, Segoe UI, sans-serif" text-anchor="middle">250MB</text><line x1="631.7" y1="14" x2="631.7" y2="334" stroke="#e1e0d9" stroke-width="1"/><text x="631.7" y="364" fill="#898781" font-size="10.5" font-family="system-ui, -apple-system, Segoe UI, sans-serif" text-anchor="middle">500MB</text><line x1="662" y1="14" x2="662" y2="334" stroke="#e1e0d9" stroke-width="1"/><text x="662" y="352" fill="#898781" font-size="10.5" font-family="system-ui, -apple-system, Segoe UI, sans-serif" text-anchor="middle">1GB</text><line x1="76" y1="334" x2="662" y2="334" stroke="#c3c2b7" stroke-width="1"/><polyline points="76,324.45 173.33,321.33 270.66,276.63 338.7,264.88 369,263.97 466.33,225.76 563.66,141.22 602.4,120.02 631.7,99.65 662,75.63" fill="none" stroke="#2a78d6" stroke-width="2"/><circle cx="76" cy="324.45" r="3.5" fill="#2a78d6" stroke="#fcfcfb" stroke-width="2"><title>Default encode at 1KB: 13.2 ms</title></circle><circle cx="173.33" cy="321.33" r="3.5" fill="#2a78d6" stroke="#fcfcfb" stroke-width="2"><title>Default encode at 10KB: 14.4 ms</title></circle><circle cx="270.66" cy="276.63" r="3.5" fill="#2a78d6" stroke="#fcfcfb" stroke-width="2"><title>Default encode at 100KB: 52.1 ms</title></circle><circle cx="338.7" cy="264.88" r="3.5" fill="#2a78d6" stroke="#fcfcfb" stroke-width="2"><title>Default encode at 500KB: 73.1 ms</title></circle><circle cx="369" cy="263.97" r="3.5" fill="#2a78d6" stroke="#fcfcfb" stroke-width="2"><title>Default encode at 1MB: 75.1 ms</title></circle><circle cx="466.33" cy="225.76" r="3.5" fill="#2a78d6" stroke="#fcfcfb" stroke-width="2"><title>Default encode at 10MB: 225.4 ms</title></circle><circle cx="563.66" cy="141.22" r="3.5" fill="#2a78d6" stroke="#fcfcfb" stroke-width="2"><title>Default encode at 100MB: 2.57 s</title></circle><circle cx="602.4" cy="120.02" r="3.5" fill="#2a78d6" stroke="#fcfcfb" stroke-width="2"><title>Default encode at 250MB: 4.73 s</title></circle><circle cx="631.7" cy="99.65" r="3.5" fill="#2a78d6" stroke="#fcfcfb" stroke-width="2"><title>Default encode at 500MB: 8.5 s</title></circle><circle cx="662" cy="75.63" r="3.5" fill="#2a78d6" stroke="#fcfcfb" stroke-width="2"><title>Default encode at 1GB: 16.97 s</title></circle><polyline points="76,278.42 173.33,274.38 270.66,275.45 338.7,273.8 369,278.75 466.33,222.67 563.66,164.51 602.4,136.39 631.7,114.55 662,89.43" fill="none" stroke="#2a78d6" stroke-width="2" stroke-dasharray="6 4"/><circle cx="76" cy="278.42" r="3.5" fill="#2a78d6" stroke="#fcfcfb" stroke-width="2"><title>Default decode at 1KB: 49.5 ms</title></circle><circle cx="173.33" cy="274.38" r="3.5" fill="#2a78d6" stroke="#fcfcfb" stroke-width="2"><title>Default decode at 10KB: 55.6 ms</title></circle><circle cx="270.66" cy="275.45" r="3.5" fill="#2a78d6" stroke="#fcfcfb" stroke-width="2"><title>Default decode at 100KB: 53.9 ms</title></circle><circle cx="338.7" cy="273.8" r="3.5" fill="#2a78d6" stroke="#fcfcfb" stroke-width="2"><title>Default decode at 500KB: 56.6 ms</title></circle><circle cx="369" cy="278.75" r="3.5" fill="#2a78d6" stroke="#fcfcfb" stroke-width="2"><title>Default decode at 1MB: 49 ms</title></circle><circle cx="466.33" cy="222.67" r="3.5" fill="#2a78d6" stroke="#fcfcfb" stroke-width="2"><title>Default decode at 10MB: 246.4 ms</title></circle><circle cx="563.66" cy="164.51" r="3.5" fill="#2a78d6" stroke="#fcfcfb" stroke-width="2"><title>Default decode at 100MB: 1.31 s</title></circle><circle cx="602.4" cy="136.39" r="3.5" fill="#2a78d6" stroke="#fcfcfb" stroke-width="2"><title>Default decode at 250MB: 2.95 s</title></circle><circle cx="631.7" cy="114.55" r="3.5" fill="#2a78d6" stroke="#fcfcfb" stroke-width="2"><title>Default decode at 500MB: 5.53 s</title></circle><circle cx="662" cy="89.43" r="3.5" fill="#2a78d6" stroke="#fcfcfb" stroke-width="2"><title>Default decode at 1GB: 11.41 s</title></circle><polyline points="76,318.24 173.33,313.31 270.66,288.09 338.7,249.93 369,245.65 466.33,224.25 563.66,163.69 602.4,128.31 631.7,108.14 662,89.38" fill="none" stroke="#1baf7a" stroke-width="2"/><circle cx="76" cy="318.24" r="3.5" fill="#1baf7a" stroke="#fcfcfb" stroke-width="2"><title>Dense encode at 1KB: 15.7 ms</title></circle><circle cx="173.33" cy="313.31" r="3.5" fill="#1baf7a" stroke="#fcfcfb" stroke-width="2"><title>Dense encode at 10KB: 18.1 ms</title></circle><circle cx="270.66" cy="288.09" r="3.5" fill="#1baf7a" stroke="#fcfcfb" stroke-width="2"><title>Dense encode at 100KB: 37.5 ms</title></circle><circle cx="338.7" cy="249.93" r="3.5" fill="#1baf7a" stroke="#fcfcfb" stroke-width="2"><title>Dense encode at 500KB: 112.4 ms</title></circle><circle cx="369" cy="245.65" r="3.5" fill="#1baf7a" stroke="#fcfcfb" stroke-width="2"><title>Dense encode at 1MB: 127.2 ms</title></circle><circle cx="466.33" cy="224.25" r="3.5" fill="#1baf7a" stroke="#fcfcfb" stroke-width="2"><title>Dense encode at 10MB: 235.5 ms</title></circle><circle cx="563.66" cy="163.69" r="3.5" fill="#1baf7a" stroke="#fcfcfb" stroke-width="2"><title>Dense encode at 100MB: 1.35 s</title></circle><circle cx="602.4" cy="128.31" r="3.5" fill="#1baf7a" stroke="#fcfcfb" stroke-width="2"><title>Dense encode at 250MB: 3.73 s</title></circle><circle cx="631.7" cy="108.14" r="3.5" fill="#1baf7a" stroke="#fcfcfb" stroke-width="2"><title>Dense encode at 500MB: 6.66 s</title></circle><circle cx="662" cy="89.38" r="3.5" fill="#1baf7a" stroke="#fcfcfb" stroke-width="2"><title>Dense encode at 1GB: 11.42 s</title></circle><polyline points="76,267.96 173.33,270.8 270.66,268.85 338.7,274.43 369,270.91 466.33,245.06 563.66,191.51 602.4,154.36 631.7,135.37 662,113.19" fill="none" stroke="#1baf7a" stroke-width="2" stroke-dasharray="6 4"/><circle cx="76" cy="267.96" r="3.5" fill="#1baf7a" stroke="#fcfcfb" stroke-width="2"><title>Dense decode at 1KB: 66.9 ms</title></circle><circle cx="173.33" cy="270.8" r="3.5" fill="#1baf7a" stroke="#fcfcfb" stroke-width="2"><title>Dense decode at 10KB: 61.7 ms</title></circle><circle cx="270.66" cy="268.85" r="3.5" fill="#1baf7a" stroke="#fcfcfb" stroke-width="2"><title>Dense decode at 100KB: 65.2 ms</title></circle><circle cx="338.7" cy="274.43" r="3.5" fill="#1baf7a" stroke="#fcfcfb" stroke-width="2"><title>Dense decode at 500KB: 55.5 ms</title></circle><circle cx="369" cy="270.91" r="3.5" fill="#1baf7a" stroke="#fcfcfb" stroke-width="2"><title>Dense decode at 1MB: 61.5 ms</title></circle><circle cx="466.33" cy="245.06" r="3.5" fill="#1baf7a" stroke="#fcfcfb" stroke-width="2"><title>Dense decode at 10MB: 129.4 ms</title></circle><circle cx="563.66" cy="191.51" r="3.5" fill="#1baf7a" stroke="#fcfcfb" stroke-width="2"><title>Dense decode at 100MB: 604.1 ms</title></circle><circle cx="602.4" cy="154.36" r="3.5" fill="#1baf7a" stroke="#fcfcfb" stroke-width="2"><title>Dense decode at 250MB: 1.76 s</title></circle><circle cx="631.7" cy="135.37" r="3.5" fill="#1baf7a" stroke="#fcfcfb" stroke-width="2"><title>Dense decode at 500MB: 3.04 s</title></circle><circle cx="662" cy="113.19" r="3.5" fill="#1baf7a" stroke="#fcfcfb" stroke-width="2"><title>Dense decode at 1GB: 5.76 s</title></circle><polyline points="76,262.58 173.33,261.51 270.66,259.91 338.7,257.43 369,259.85 466.33,251.84 563.66,214.85 602.4,194.33 631.7,169.09 662,141.8" fill="none" stroke="#eda100" stroke-width="2"/><circle cx="76" cy="262.58" r="3.5" fill="#eda100" stroke="#fcfcfb" stroke-width="2"><title>Max4K encode at 1KB: 78.1 ms</title></circle><circle cx="173.33" cy="261.51" r="3.5" fill="#eda100" stroke="#fcfcfb" stroke-width="2"><title>Max4K encode at 10KB: 80.6 ms</title></circle><circle cx="270.66" cy="259.91" r="3.5" fill="#eda100" stroke="#fcfcfb" stroke-width="2"><title>Max4K encode at 100KB: 84.4 ms</title></circle><circle cx="338.7" cy="257.43" r="3.5" fill="#eda100" stroke="#fcfcfb" stroke-width="2"><title>Max4K encode at 500KB: 90.6 ms</title></circle><circle cx="369" cy="259.85" r="3.5" fill="#eda100" stroke="#fcfcfb" stroke-width="2"><title>Max4K encode at 1MB: 84.5 ms</title></circle><circle cx="466.33" cy="251.84" r="3.5" fill="#eda100" stroke="#fcfcfb" stroke-width="2"><title>Max4K encode at 10MB: 106.4 ms</title></circle><circle cx="563.66" cy="214.85" r="3.5" fill="#eda100" stroke="#fcfcfb" stroke-width="2"><title>Max4K encode at 100MB: 308.6 ms</title></circle><circle cx="602.4" cy="194.33" r="3.5" fill="#eda100" stroke="#fcfcfb" stroke-width="2"><title>Max4K encode at 250MB: 557.1 ms</title></circle><circle cx="631.7" cy="169.09" r="3.5" fill="#eda100" stroke="#fcfcfb" stroke-width="2"><title>Max4K encode at 500MB: 1.15 s</title></circle><circle cx="662" cy="141.8" r="3.5" fill="#eda100" stroke="#fcfcfb" stroke-width="2"><title>Max4K encode at 1GB: 2.53 s</title></circle><polyline points="76,249.5 173.33,246.44 270.66,248.87 338.7,245.37 369,244.32 466.33,241.73 563.66,208.57 602.4,174.1 631.7,152.39 662,127.58" fill="none" stroke="#eda100" stroke-width="2" stroke-dasharray="6 4"/><circle cx="76" cy="249.5" r="3.5" fill="#eda100" stroke="#fcfcfb" stroke-width="2"><title>Max4K decode at 1KB: 113.8 ms</title></circle><circle cx="173.33" cy="246.44" r="3.5" fill="#eda100" stroke="#fcfcfb" stroke-width="2"><title>Max4K decode at 10KB: 124.3 ms</title></circle><circle cx="270.66" cy="248.87" r="3.5" fill="#eda100" stroke="#fcfcfb" stroke-width="2"><title>Max4K decode at 100KB: 115.9 ms</title></circle><circle cx="338.7" cy="245.37" r="3.5" fill="#eda100" stroke="#fcfcfb" stroke-width="2"><title>Max4K decode at 500KB: 128.2 ms</title></circle><circle cx="369" cy="244.32" r="3.5" fill="#eda100" stroke="#fcfcfb" stroke-width="2"><title>Max4K decode at 1MB: 132.1 ms</title></circle><circle cx="466.33" cy="241.73" r="3.5" fill="#eda100" stroke="#fcfcfb" stroke-width="2"><title>Max4K decode at 10MB: 142.3 ms</title></circle><circle cx="563.66" cy="208.57" r="3.5" fill="#eda100" stroke="#fcfcfb" stroke-width="2"><title>Max4K decode at 100MB: 369.7 ms</title></circle><circle cx="602.4" cy="174.1" r="3.5" fill="#eda100" stroke="#fcfcfb" stroke-width="2"><title>Max4K decode at 250MB: 997.2 ms</title></circle><circle cx="631.7" cy="152.39" r="3.5" fill="#eda100" stroke="#fcfcfb" stroke-width="2"><title>Max4K decode at 500MB: 1.86 s</title></circle><circle cx="662" cy="127.58" r="3.5" fill="#eda100" stroke="#fcfcfb" stroke-width="2"><title>Max4K decode at 1GB: 3.8 s</title></circle><polyline points="76,254.54 173.33,261.03 270.66,251.25 338.7,252.42 369,257.52 466.33,239.47 563.66,215.28 602.4,179.94 631.7,161.03 662,131.92" fill="none" stroke="#008300" stroke-width="2"/><circle cx="76" cy="254.54" r="3.5" fill="#008300" stroke="#fcfcfb" stroke-width="2"><title>Max4K-R10 encode at 1KB: 98.5 ms</title></circle><circle cx="173.33" cy="261.03" r="3.5" fill="#008300" stroke="#fcfcfb" stroke-width="2"><title>Max4K-R10 encode at 10KB: 81.7 ms</title></circle><circle cx="270.66" cy="251.25" r="3.5" fill="#008300" stroke="#fcfcfb" stroke-width="2"><title>Max4K-R10 encode at 100KB: 108.2 ms</title></circle><circle cx="338.7" cy="252.42" r="3.5" fill="#008300" stroke="#fcfcfb" stroke-width="2"><title>Max4K-R10 encode at 500KB: 104.6 ms</title></circle><circle cx="369" cy="257.52" r="3.5" fill="#008300" stroke="#fcfcfb" stroke-width="2"><title>Max4K-R10 encode at 1MB: 90.4 ms</title></circle><circle cx="466.33" cy="239.47" r="3.5" fill="#008300" stroke="#fcfcfb" stroke-width="2"><title>Max4K-R10 encode at 10MB: 151.9 ms</title></circle><circle cx="563.66" cy="215.28" r="3.5" fill="#008300" stroke="#fcfcfb" stroke-width="2"><title>Max4K-R10 encode at 100MB: 304.8 ms</title></circle><circle cx="602.4" cy="179.94" r="3.5" fill="#008300" stroke="#fcfcfb" stroke-width="2"><title>Max4K-R10 encode at 250MB: 842.8 ms</title></circle><circle cx="631.7" cy="161.03" r="3.5" fill="#008300" stroke="#fcfcfb" stroke-width="2"><title>Max4K-R10 encode at 500MB: 1.45 s</title></circle><circle cx="662" cy="131.92" r="3.5" fill="#008300" stroke="#fcfcfb" stroke-width="2"><title>Max4K-R10 encode at 1GB: 3.36 s</title></circle><polyline points="76,245.12 173.33,249.69 270.66,246.4 338.7,241.19 369,240.9 466.33,243 563.66,209.79 602.4,172.76 631.7,149.79 662,135.93" fill="none" stroke="#008300" stroke-width="2" stroke-dasharray="6 4"/><circle cx="76" cy="245.12" r="3.5" fill="#008300" stroke="#fcfcfb" stroke-width="2"><title>Max4K-R10 decode at 1KB: 129.1 ms</title></circle><circle cx="173.33" cy="249.69" r="3.5" fill="#008300" stroke="#fcfcfb" stroke-width="2"><title>Max4K-R10 decode at 10KB: 113.2 ms</title></circle><circle cx="270.66" cy="246.4" r="3.5" fill="#008300" stroke="#fcfcfb" stroke-width="2"><title>Max4K-R10 decode at 100KB: 124.5 ms</title></circle><circle cx="338.7" cy="241.19" r="3.5" fill="#008300" stroke="#fcfcfb" stroke-width="2"><title>Max4K-R10 decode at 500KB: 144.6 ms</title></circle><circle cx="369" cy="240.9" r="3.5" fill="#008300" stroke="#fcfcfb" stroke-width="2"><title>Max4K-R10 decode at 1MB: 145.8 ms</title></circle><circle cx="466.33" cy="243" r="3.5" fill="#008300" stroke="#fcfcfb" stroke-width="2"><title>Max4K-R10 decode at 10MB: 137.3 ms</title></circle><circle cx="563.66" cy="209.79" r="3.5" fill="#008300" stroke="#fcfcfb" stroke-width="2"><title>Max4K-R10 decode at 100MB: 357 ms</title></circle><circle cx="602.4" cy="172.76" r="3.5" fill="#008300" stroke="#fcfcfb" stroke-width="2"><title>Max4K-R10 decode at 250MB: 1.04 s</title></circle><circle cx="631.7" cy="149.79" r="3.5" fill="#008300" stroke="#fcfcfb" stroke-width="2"><title>Max4K-R10 decode at 500MB: 2.01 s</title></circle><circle cx="662" cy="135.93" r="3.5" fill="#008300" stroke="#fcfcfb" stroke-width="2"><title>Max4K-R10 decode at 1GB: 2.99 s</title></circle></g></svg>
