<svg xmlns="http://www.w3.org/2000/svg" viewBox="0 0 680 426" width="680" height="426" role="img" aria-label="Codec round-trip throughput"><rect width="680" height="426" fill="#fcfcfb"/><text x="18" y="21" font-family="system-ui, -apple-system, Segoe UI, sans-serif" font-size="14.5" font-weight="600" fill="#0b0b0b">Codec round-trip throughput</text><line x1="18" y1="35" x2="38" y2="35" stroke="#2a78d6" stroke-width="2.5"/><text x="44" y="39" font-family="system-ui, -apple-system, Segoe UI, sans-serif" font-size="11.5" fill="#52514e">Default</text><line x1="105.05" y1="35" x2="125.05" y2="35" stroke="#1baf7a" stroke-width="2.5"/><text x="131.05" y="39" font-family="system-ui, -apple-system, Segoe UI, sans-serif" font-size="11.5" fill="#52514e">Dense</text><line x1="179.8" y1="35" x2="199.8" y2="35" stroke="#eda100" stroke-width="2.5"/><text x="205.8" y="39" font-family="system-ui, -apple-system, Segoe UI, sans-serif" font-size="11.5" fill="#52514e">Max4K</text><line x1="254.55" y1="35" x2="274.55" y2="35" stroke="#008300" stroke-width="2.5"/><text x="280.55" y="39" font-family="system-ui, -apple-system, Segoe UI, sans-serif" font-size="11.5" fill="#52514e">Max4K-R10</text><g transform="translate(0,46)"><line x1="76" y1="334" x2="662" y2="334" stroke="#e1e0d9" stroke-width="1"/><text x="68" y="337.5" fill="#898781" font-size="10.5" font-family="system-ui, -apple-system, Segoe UI, sans-serif" text-anchor="end">0.001 MB/s</text><line x1="76" y1="280.67" x2="662" y2="280.67" stroke="#e1e0d9" stroke-width="1"/><text x="68" y="284.17" fill="#898781" font-size="10.5" font-family="system-ui, -apple-system, Segoe UI, sans-serif" text-anchor="end">0.01 MB/s</text><line x1="76" y1="227.33" x2="662" y2="227.33" stroke="#e1e0d9" stroke-width="1"/><text x="68" y="230.83" fill="#898781" font-size="10.5" font-family="system-ui, -apple-system, Segoe UI, sans-serif" text-anchor="end">0.1 MB/s</text><line x1="76" y1="174" x2="662" y2="174" stroke="#e1e0d9" stroke-width="1"/><text x="68" y="177.5" fill="#898781" font-size="10.5" font-family="system-ui, -apple-system, Segoe UI, sans-serif" text-anchor="end">1 MB/s</text><line x1="76" y1="120.67" x2="662" y2="120.67" stroke="#e1e0d9" stroke-width="1"/><text x="68" y="124.17" fill="#898781" font-size="10.5" font-family="system-ui, -apple-system, Segoe UI, sans-serif" text-anchor="end">10 MB/s</text><line x1="76" y1="67.33" x2="662" y2="67.33" stroke="#e1e0d9" stroke-width="1"/><text x="68" y="70.83" fill="#898781" font-size="10.5" font-family="system-ui, -apple-system, Segoe UI, sans-serif" text-anchor="end">100 MB/s</text><line x1="76" y1="14" x2="662" y2="14" stroke="#e1e0d9" stroke-width="1"/><text x="68" y="17.5" fill="#898781" font-size="10.5" font-family="system-ui, -apple-system, Segoe UI, sans-serif" text-anchor="end">1000 MB/s</text><line x1="76" y1="14" x2="76" y2="334" stroke="#e1e0d9" stroke-width="1"/><text x="76" y="352" fill="#898781" font-size="10.5" font-family="system-ui, -apple-system, Segoe UI, sans-serif" text-anchor="middle">1KB</text><line x1="173.33" y1="14" x2="173.33" y2="334" stroke="#e1e0d9" stroke-width="1"/><text x="173.33" y="352" fill="#898781" font-size="10.5" font-family="system-ui, -apple-system, Segoe UI, sans-serif" text-anchor="middle">10KB</text><line x1="270.66" y1="14" x2="270.66" y2="334" stroke="#e1e0d9" stroke-width="1"/><text x="270.66" y="352" fill="#898781" font-size="10.5" font-family="system-ui, -apple-system, Segoe UI, sans-serif" text-anchor="middle">100KB</text><line x1="338.7" y1="14" x2="338.7" y2="334" stroke="#e1e0d9" stroke-width="1"/><text x="338.7" y="352" fill="#898781" font-size="10.5" font-family="system-ui, -apple-system, Segoe UI, sans-serif" text-anchor="middle">500KB</text><line x1="369" y1="14" x2="369" y2="334" stroke="#e1e0d9" stroke-width="1"/><text x="369" y="352" fill="#898781" font-size="10.5" font-family="system-ui, -apple-system, Segoe UI, sans-serif" text-anchor="middle">1MB</text><line x1="466.33" y1="14" x2="466.33" y2="334" stroke="#e1e0d9" stroke-width="1"/><text x="466.33" y="352" fill="#898781" font-size="10.5" font-family="system-ui, -apple-system, Segoe UI, sans-serif" text-anchor="middle">10MB</text><line x1="563.66" y1="14" x2="563.66" y2="334" stroke="#e1e0d9" stroke-width="1"/><text x="563.66" y="352" fill="#898781" font-size="10.5" font-family="system-ui, -apple-system, Segoe UI, sans-serif" text-anchor="middle">100MB</text><line x1="602.4" y1="14" x2="602.4" y2="334" stroke="#e1e0d9" stroke-width="1"/><text x="602.4" y="352" fill="#898781" font-size="10.5" font-family="system-ui, -apple-system, Segoe UI, sans-serif" text-anchor="middle">250MB</text><line x1="631.7" y1="14" x2="631.7" y2="334" stroke="#e1e0d9" stroke-width="1"/><text x="631.7" y="364" fill="#898781" font-size="10.5" font-family="system-ui, -apple-system, Segoe UI, sans-serif" text-anchor="middle">500MB</text><line x1="662" y1="14" x2="662" y2="334" stroke="#e1e0d9" stroke-width="1"/><text x="662" y="352" fill="#898781" font-size="10.5" font-family="system-ui, -apple-system, Segoe UI, sans-serif" text-anchor="middle">1GB</text><line x1="76" y1="334" x2="662" y2="334" stroke="#c3c2b7" stroke-width="1"/><polyline points="76,270.4 173.33,219.63 270.66,175.92 338.7,143.29 369,125.67 466.33,103.27 563.66,98.75 602.4,93.33 631.7,91.24 662,90.94" fill="none" stroke="#2a78d6" stroke-width="2"/><circle cx="76" cy="270.4" r="3.5" fill="#2a78d6" stroke="#fcfcfb" stroke-width="2"><title>Default at 1KB: 0.016 MB/s</title></circle><circle cx="173.33" cy="219.63" r="3.5" fill="#2a78d6" stroke="#fcfcfb" stroke-width="2"><title>Default at 10KB: 0.139 MB/s</title></circle><circle cx="270.66" cy="175.92" r="3.5" fill="#2a78d6" stroke="#fcfcfb" stroke-width="2"><title>Default at 100KB: 0.921 MB/s</title></circle><circle cx="338.7" cy="143.29" r="3.5" fill="#2a78d6" stroke="#fcfcfb" stroke-width="2"><title>Default at 500KB: 3.8 MB/s</title></circle><circle cx="369" cy="125.67" r="3.5" fill="#2a78d6" stroke="#fcfcfb" stroke-width="2"><title>Default at 1MB: 8.1 MB/s</title></circle><circle cx="466.33" cy="103.27" r="3.5" fill="#2a78d6" stroke="#fcfcfb" stroke-width="2"><title>Default at 10MB: 21.2 MB/s</title></circle><circle cx="563.66" cy="98.75" r="3.5" fill="#2a78d6" stroke="#fcfcfb" stroke-width="2"><title>Default at 100MB: 25.8 MB/s</title></circle><circle cx="602.4" cy="93.33" r="3.5" fill="#2a78d6" stroke="#fcfcfb" stroke-width="2"><title>Default at 250MB: 32.5 MB/s</title></circle><circle cx="631.7" cy="91.24" r="3.5" fill="#2a78d6" stroke="#fcfcfb" stroke-width="2"><title>Default at 500MB: 35.6 MB/s</title></circle><circle cx="662" cy="90.94" r="3.5" fill="#2a78d6" stroke="#fcfcfb" stroke-width="2"><title>Default at 1GB: 36.1 MB/s</title></circle><polyline points="76,276.8 173.33,222.65 270.66,175.17 338.7,149.28 369,135.36 466.33,97.31 563.66,82.8 602.4,85.53 631.7,82.67 662,79.32" fill="none" stroke="#1baf7a" stroke-width="2"/><circle cx="76" cy="276.8" r="3.5" fill="#1baf7a" stroke="#fcfcfb" stroke-width="2"><title>Dense at 1KB: 0.012 MB/s</title></circle><circle cx="173.33" cy="222.65" r="3.5" fill="#1baf7a" stroke="#fcfcfb" stroke-width="2"><title>Dense at 10KB: 0.122 MB/s</title></circle><circle cx="270.66" cy="175.17" r="3.5" fill="#1baf7a" stroke="#fcfcfb" stroke-width="2"><title>Dense at 100KB: 0.951 MB/s</title></circle><circle cx="338.7" cy="149.28" r="3.5" fill="#1baf7a" stroke="#fcfcfb" stroke-width="2"><title>Dense at 500KB: 2.9 MB/s</title></circle><circle cx="369" cy="135.36" r="3.5" fill="#1baf7a" stroke="#fcfcfb" stroke-width="2"><title>Dense at 1MB: 5.3 MB/s</title></circle><circle cx="466.33" cy="97.31" r="3.5" fill="#1baf7a" stroke="#fcfcfb" stroke-width="2"><title>Dense at 10MB: 27.4 MB/s</title></circle><circle cx="563.66" cy="82.8" r="3.5" fill="#1baf7a" stroke="#fcfcfb" stroke-width="2"><title>Dense at 100MB: 51.3 MB/s</title></circle><circle cx="602.4" cy="85.53" r="3.5" fill="#1baf7a" stroke="#fcfcfb" stroke-width="2"><title>Dense at 250MB: 45.6 MB/s</title></circle><circle cx="631.7" cy="82.67" r="3.5" fill="#1baf7a" stroke="#fcfcfb" stroke-width="2"><title>Dense at 500MB: 51.6 MB/s</title></circle><circle cx="662" cy="79.32" r="3.5" fill="#1baf7a" stroke="#fcfcfb" stroke-width="2"><title>Dense at 1GB: 59.6 MB/s</title></circle><polyline points="76,296.32 173.33,244.49 270.66,190.63 338.7,155.41 369,138.57 466.33,88.44 563.66,58.34 602.4,56.33 631.7,55.61 662,56.19" fill="none" stroke="#eda100" stroke-width="2"/><circle cx="76" cy="296.32" r="3.5" fill="#eda100" stroke="#fcfcfb" stroke-width="2"><title>Max4K at 1KB: 0.005 MB/s</title></circle><circle cx="173.33" cy="244.49" r="3.5" fill="#eda100" stroke="#fcfcfb" stroke-width="2"><title>Max4K at 10KB: 0.048 MB/s</title></circle><circle cx="270.66" cy="190.63" r="3.5" fill="#eda100" stroke="#fcfcfb" stroke-width="2"><title>Max4K at 100KB: 0.488 MB/s</title></circle><circle cx="338.7" cy="155.41" r="3.5" fill="#eda100" stroke="#fcfcfb" stroke-width="2"><title>Max4K at 500KB: 2.2 MB/s</title></circle><circle cx="369" cy="138.57" r="3.5" fill="#eda100" stroke="#fcfcfb" stroke-width="2"><title>Max4K at 1MB: 4.6 MB/s</title></circle><circle cx="466.33" cy="88.44" r="3.5" fill="#eda100" stroke="#fcfcfb" stroke-width="2"><title>Max4K at 10MB: 40.2 MB/s</title></circle><circle cx="563.66" cy="58.34" r="3.5" fill="#eda100" stroke="#fcfcfb" stroke-width="2"><title>Max4K at 100MB: 147 MB/s</title></circle><circle cx="602.4" cy="56.33" r="3.5" fill="#eda100" stroke="#fcfcfb" stroke-width="2"><title>Max4K at 250MB: 161 MB/s</title></circle><circle cx="631.7" cy="55.61" r="3.5" fill="#eda100" stroke="#fcfcfb" stroke-width="2"><title>Max4K at 500MB: 166 MB/s</title></circle><circle cx="662" cy="56.19" r="3.5" fill="#eda100" stroke="#fcfcfb" stroke-width="2"><title>Max4K at 1GB: 162 MB/s</title></circle><polyline points="76,300.26 173.33,243.34 270.66,194.11 338.7,158.42 369,140.57 466.33,91.93 563.66,57.77 602.4,60.72 631.7,58.81 662,56.26" fill="none" stroke="#008300" stroke-width="2"/><circle cx="76" cy="300.26" r="3.5" fill="#008300" stroke="#fcfcfb" stroke-width="2"><title>Max4K-R10 at 1KB: 0.004 MB/s</title></circle><circle cx="173.33" cy="243.34" r="3.5" fill="#008300" stroke="#fcfcfb" stroke-width="2"><title>Max4K-R10 at 10KB: 0.05 MB/s</title></circle><circle cx="270.66" cy="194.11" r="3.5" fill="#008300" stroke="#fcfcfb" stroke-width="2"><title>Max4K-R10 at 100KB: 0.42 MB/s</title></circle><circle cx="338.7" cy="158.42" r="3.5" fill="#008300" stroke="#fcfcfb" stroke-width="2"><title>Max4K-R10 at 500KB: 2 MB/s</title></circle><circle cx="369" cy="140.57" r="3.5" fill="#008300" stroke="#fcfcfb" stroke-width="2"><title>Max4K-R10 at 1MB: 4.2 MB/s</title></circle><circle cx="466.33" cy="91.93" r="3.5" fill="#008300" stroke="#fcfcfb" stroke-width="2"><title>Max4K-R10 at 10MB: 34.6 MB/s</title></circle><circle cx="563.66" cy="57.77" r="3.5" fill="#008300" stroke="#fcfcfb" stroke-width="2"><title>Max4K-R10 at 100MB: 151 MB/s</title></circle><circle cx="602.4" cy="60.72" r="3.5" fill="#008300" stroke="#fcfcfb" stroke-width="2"><title>Max4K-R10 at 250MB: 133 MB/s</title></circle><circle cx="631.7" cy="58.81" r="3.5" fill="#008300" stroke="#fcfcfb" stroke-width="2"><title>Max4K-R10 at 500MB: 145 MB/s</title></circle><circle cx="662" cy="56.26" r="3.5" fill="#008300" stroke="#fcfcfb" stroke-width="2"><title>Max4K-R10 at 1GB: 161 MB/s</title></circle></g></svg>
