<svg xmlns="http://www.w3.org/2000/svg" viewBox="0 0 680 426" width="680" height="426" role="img" aria-label="Codec round-trip throughput"><rect width="680" height="426" fill="#fcfcfb"/><text x="18" y="21" font-family="system-ui, -apple-system, Segoe UI, sans-serif" font-size="14.5" font-weight="600" fill="#0b0b0b">Codec round-trip throughput</text><line x1="18" y1="35" x2="38" y2="35" stroke="#2a78d6" stroke-width="2.5"/><text x="44" y="39" font-family="system-ui, -apple-system, Segoe UI, sans-serif" font-size="11.5" fill="#52514e">Default</text><line x1="105.05" y1="35" x2="125.05" y2="35" stroke="#1baf7a" stroke-width="2.5"/><text x="131.05" y="39" font-family="system-ui, -apple-system, Segoe UI, sans-serif" font-size="11.5" fill="#52514e">Dense</text><line x1="179.8" y1="35" x2="199.8" y2="35" stroke="#eda100" stroke-width="2.5"/><text x="205.8" y="39" font-family="system-ui, -apple-system, Segoe UI, sans-serif" font-size="11.5" fill="#52514e">Max4K</text><line x1="254.55" y1="35" x2="274.55" y2="35" stroke="#008300" stroke-width="2.5"/><text x="280.55" y="39" font-family="system-ui, -apple-system, Segoe UI, sans-serif" font-size="11.5" fill="#52514e">Max4K-R10</text><g transform="translate(0,46)"><line x1="76" y1="334" x2="662" y2="334" stroke="#e1e0d9" stroke-width="1"/><text x="68" y="337.5" fill="#898781" font-size="10.5" font-family="system-ui, -apple-system, Segoe UI, sans-serif" text-anchor="end">0.001 MB/s</text><line x1="76" y1="280.67" x2="662" y2="280.67" stroke="#e1e0d9" stroke-width="1"/><text x="68" y="284.17" fill="#898781" font-size="10.5" font-family="system-ui, -apple-system, Segoe UI, sans-serif" text-anchor="end">0.01 MB/s</text><line x1="76" y1="227.33" x2="662" y2="227.33" stroke="#e1e0d9" stroke-width="1"/><text x="68" y="230.83" fill="#898781" font-size="10.5" font-family="system-ui, -apple-system, Segoe UI, sans-serif" text-anchor="end">0.1 MB/s</text><line x1="76" y1="174" x2="662" y2="174" stroke="#e1e0d9" stroke-width="1"/><text x="68" y="177.5" fill="#898781" font-size="10.5" font-family="system-ui, -apple-system, Segoe UI, sans-serif" text-anchor="end">1 MB/s</text><line x1="76" y1="120.67" x2="662" y2="120.67" stroke="#e1e0d9" stroke-width="1"/><text x="68" y="124.17" fill="#898781" font-size="10.5" font-family="system-ui, -apple-system, Segoe UI, sans-serif" text-anchor="end">10 MB/s</text><line x1="76" y1="67.33" x2="662" y2="67.33" stroke="#e1e0d9" stroke-width="1"/><text x="68" y="70.83" fill="#898781" font-size="10.5" font-family="system-ui, -apple-system, Segoe UI, sans-serif" text-anchor="end">100 MB/s</text><line x1="76" y1="14" x2="662" y2="14" stroke="#e1e0d9" stroke-width="1"/><text x="68" y="17.5" fill="#898781" font-size="10.5" font-family="system-ui, -apple-system, Segoe UI, sans-serif" text-anchor="end">1000 MB/s</text><line x1="76" y1="14" x2="76" y2="334" stroke="#e1e0d9" stroke-width="1"/><text x="76" y="352" fill="#898781" font-size="10.5" font-family="system-ui, -apple-system, Segoe UI, sans-serif" text-anchor="middle">1KB</text><line x1="192.96" y1="14" x2="192.96" y2="334" stroke="#e1e0d9" stroke-width="1"/><text x="192.96" y="352" fill="#898781" font-size="10.5" font-family="system-ui, -apple-system, Segoe UI, sans-serif" text-anchor="middle">10KB</text><line x1="309.92" y1="14" x2="309.92" y2="334" stroke="#e1e0d9" stroke-width="1"/><text x="309.92" y="352" fill="#898781" font-size="10.5" font-family="system-ui, -apple-system, Segoe UI, sans-serif" text-anchor="middle">100KB</text><line x1="391.67" y1="14" x2="391.67" y2="334" stroke="#e1e0d9" stroke-width="1"/><text x="391.67" y="352" fill="#898781" font-size="10.5" font-family="system-ui, -apple-system, Segoe UI, sans-serif" text-anchor="middle">500KB</text><line x1="428.08" y1="14" x2="428.08" y2="334" stroke="#e1e0d9" stroke-width="1"/><text x="428.08" y="352" fill="#898781" font-size="10.5" font-family="system-ui, -apple-system, Segoe UI, sans-serif" text-anchor="middle">1MB</text><line x1="545.04" y1="14" x2="545.04" y2="334" stroke="#e1e0d9" stroke-width="1"/><text x="545.04" y="352" fill="#898781" font-size="10.5" font-family="system-ui, -apple-system, Segoe UI, sans-serif" text-anchor="middle">10MB</text><line x1="662" y1="14" x2="662" y2="334" stroke="#e1e0d9" stroke-width="1"/><text x="662" y="352" fill="#898781" font-size="10.5" font-family="system-ui, -apple-system, Segoe UI, sans-serif" text-anchor="middle">100MB</text><line x1="76" y1="334" x2="662" y2="334" stroke="#c3c2b7" stroke-width="1"/><polyline points="76,269.87 192.96,219.51 309.92,174.3 391.67,141.59 428.08,126.22 545.04,101.65 662,97.45" fill="none" stroke="#2a78d6" stroke-width="2"/><circle cx="76" cy="269.87" r="3.5" fill="#2a78d6" stroke="#fcfcfb" stroke-width="2"><title>Default at 1KB: 0.016 MB/s</title></circle><circle cx="192.96" cy="219.51" r="3.5" fill="#2a78d6" stroke="#fcfcfb" stroke-width="2"><title>Default at 10KB: 0.14 MB/s</title></circle><circle cx="309.92" cy="174.3" r="3.5" fill="#2a78d6" stroke="#fcfcfb" stroke-width="2"><title>Default at 100KB: 0.987 MB/s</title></circle><circle cx="391.67" cy="141.59" r="3.5" fill="#2a78d6" stroke="#fcfcfb" stroke-width="2"><title>Default at 500KB: 4.1 MB/s</title></circle><circle cx="428.08" cy="126.22" r="3.5" fill="#2a78d6" stroke="#fcfcfb" stroke-width="2"><title>Default at 1MB: 7.9 MB/s</title></circle><circle cx="545.04" cy="101.65" r="3.5" fill="#2a78d6" stroke="#fcfcfb" stroke-width="2"><title>Default at 10MB: 22.7 MB/s</title></circle><circle cx="662" cy="97.45" r="3.5" fill="#2a78d6" stroke="#fcfcfb" stroke-width="2"><title>Default at 100MB: 27.2 MB/s</title></circle><polyline points="76,273.48 192.96,220.42 309.92,172.21 391.67,150.16 428.08,135.33 545.04,93.98 662,84.25" fill="none" stroke="#1baf7a" stroke-width="2"/><circle cx="76" cy="273.48" r="3.5" fill="#1baf7a" stroke="#fcfcfb" stroke-width="2"><title>Dense at 1KB: 0.014 MB/s</title></circle><circle cx="192.96" cy="220.42" r="3.5" fill="#1baf7a" stroke="#fcfcfb" stroke-width="2"><title>Dense at 10KB: 0.135 MB/s</title></circle><circle cx="309.92" cy="172.21" r="3.5" fill="#1baf7a" stroke="#fcfcfb" stroke-width="2"><title>Dense at 100KB: 1.1 MB/s</title></circle><circle cx="391.67" cy="150.16" r="3.5" fill="#1baf7a" stroke="#fcfcfb" stroke-width="2"><title>Dense at 500KB: 2.8 MB/s</title></circle><circle cx="428.08" cy="135.33" r="3.5" fill="#1baf7a" stroke="#fcfcfb" stroke-width="2"><title>Dense at 1MB: 5.3 MB/s</title></circle><circle cx="545.04" cy="93.98" r="3.5" fill="#1baf7a" stroke="#fcfcfb" stroke-width="2"><title>Dense at 10MB: 31.7 MB/s</title></circle><circle cx="662" cy="84.25" r="3.5" fill="#1baf7a" stroke="#fcfcfb" stroke-width="2"><title>Dense at 100MB: 48.2 MB/s</title></circle><polyline points="76,295.77 192.96,242.22 309.92,191.01 391.67,155.28 428.08,136.97 545.04,92.13 662,58.56" fill="none" stroke="#eda100" stroke-width="2"/><circle cx="76" cy="295.77" r="3.5" fill="#eda100" stroke="#fcfcfb" stroke-width="2"><title>Max4K at 1KB: 0.005 MB/s</title></circle><circle cx="192.96" cy="242.22" r="3.5" fill="#eda100" stroke="#fcfcfb" stroke-width="2"><title>Max4K at 10KB: 0.053 MB/s</title></circle><circle cx="309.92" cy="191.01" r="3.5" fill="#eda100" stroke="#fcfcfb" stroke-width="2"><title>Max4K at 100KB: 0.48 MB/s</title></circle><circle cx="391.67" cy="155.28" r="3.5" fill="#eda100" stroke="#fcfcfb" stroke-width="2"><title>Max4K at 500KB: 2.2 MB/s</title></circle><circle cx="428.08" cy="136.97" r="3.5" fill="#eda100" stroke="#fcfcfb" stroke-width="2"><title>Max4K at 1MB: 4.9 MB/s</title></circle><circle cx="545.04" cy="92.13" r="3.5" fill="#eda100" stroke="#fcfcfb" stroke-width="2"><title>Max4K at 10MB: 34.3 MB/s</title></circle><circle cx="662" cy="58.56" r="3.5" fill="#eda100" stroke="#fcfcfb" stroke-width="2"><title>Max4K at 100MB: 146 MB/s</title></circle><polyline points="76,300.35 192.96,246.55 309.92,193.68 391.67,155.13 428.08,141.15 545.04,93.68 662,59.27" fill="none" stroke="#008300" stroke-width="2"/><circle cx="76" cy="300.35" r="3.5" fill="#008300" stroke="#fcfcfb" stroke-width="2"><title>Max4K-R10 at 1KB: 0.004 MB/s</title></circle><circle cx="192.96" cy="246.55" r="3.5" fill="#008300" stroke="#fcfcfb" stroke-width="2"><title>Max4K-R10 at 10KB: 0.044 MB/s</title></circle><circle cx="309.92" cy="193.68" r="3.5" fill="#008300" stroke="#fcfcfb" stroke-width="2"><title>Max4K-R10 at 100KB: 0.428 MB/s</title></circle><circle cx="391.67" cy="155.13" r="3.5" fill="#008300" stroke="#fcfcfb" stroke-width="2"><title>Max4K-R10 at 500KB: 2.3 MB/s</title></circle><circle cx="428.08" cy="141.15" r="3.5" fill="#008300" stroke="#fcfcfb" stroke-width="2"><title>Max4K-R10 at 1MB: 4.1 MB/s</title></circle><circle cx="545.04" cy="93.68" r="3.5" fill="#008300" stroke="#fcfcfb" stroke-width="2"><title>Max4K-R10 at 10MB: 32.1 MB/s</title></circle><circle cx="662" cy="59.27" r="3.5" fill="#008300" stroke="#fcfcfb" stroke-width="2"><title>Max4K-R10 at 100MB: 142 MB/s</title></circle></g></svg>
