<svg xmlns="http://www.w3.org/2000/svg" viewBox="0 0 680 426" width="680" height="426" role="img" aria-label="Estimated end-to-end transfer, manual capture (3 s/image)"><rect width="680" height="426" fill="#fcfcfb"/><text x="18" y="21" font-family="system-ui, -apple-system, Segoe UI, sans-serif" font-size="14.5" font-weight="600" fill="#0b0b0b">Estimated end-to-end transfer, manual capture (3 s/image)</text><line x1="18" y1="35" x2="38" y2="35" stroke="#2a78d6" stroke-width="2.5"/><text x="44" y="39" font-family="system-ui, -apple-system, Segoe UI, sans-serif" font-size="11.5" fill="#52514e">Default</text><line x1="105.05" y1="35" x2="125.05" y2="35" stroke="#1baf7a" stroke-width="2.5"/><text x="131.05" y="39" font-family="system-ui, -apple-system, Segoe UI, sans-serif" font-size="11.5" fill="#52514e">Dense</text><line x1="179.8" y1="35" x2="199.8" y2="35" stroke="#eda100" stroke-width="2.5"/><text x="205.8" y="39" font-family="system-ui, -apple-system, Segoe UI, sans-serif" font-size="11.5" fill="#52514e">Max4K</text><line x1="254.55" y1="35" x2="274.55" y2="35" stroke="#008300" stroke-width="2.5"/><text x="280.55" y="39" font-family="system-ui, -apple-system, Segoe UI, sans-serif" font-size="11.5" fill="#52514e">Max4K-R10</text><g transform="translate(0,46)"><line x1="76" y1="334" x2="662" y2="334" stroke="#e1e0d9" stroke-width="1"/><text x="68" y="337.5" fill="#898781" font-size="10.5" font-family="system-ui, -apple-system, Segoe UI, sans-serif" text-anchor="end">1 s</text><line x1="76" y1="254" x2="662" y2="254" stroke="#e1e0d9" stroke-width="1"/><text x="68" y="257.5" fill="#898781" font-size="10.5" font-family="system-ui, -apple-system, Segoe UI, sans-serif" text-anchor="end">10 s</text><line x1="76" y1="174" x2="662" y2="174" stroke="#e1e0d9" stroke-width="1"/><text x="68" y="177.5" fill="#898781" font-size="10.5" font-family="system-ui, -apple-system, Segoe UI, sans-serif" text-anchor="end">1.7 min</text><line x1="76" y1="94" x2="662" y2="94" stroke="#e1e0d9" stroke-width="1"/><text x="68" y="97.5" fill="#898781" font-size="10.5" font-family="system-ui, -apple-system, Segoe UI, sans-serif" text-anchor="end">16.7 min</text><line x1="76" y1="14" x2="662" y2="14" stroke="#e1e0d9" stroke-width="1"/><text x="68" y="17.5" fill="#898781" font-size="10.5" font-family="system-ui, -apple-system, Segoe UI, sans-serif" text-anchor="end">2.78 h</text><line x1="76" y1="14" x2="76" y2="334" stroke="#e1e0d9" stroke-width="1"/><text x="76" y="352" fill="#898781" font-size="10.5" font-family="system-ui, -apple-system, Segoe UI, sans-serif" text-anchor="middle">1KB</text><line x1="192.96" y1="14" x2="192.96" y2="334" stroke="#e1e0d9" stroke-width="1"/><text x="192.96" y="352" fill="#898781" font-size="10.5" font-family="system-ui, -apple-system, Segoe UI, sans-serif" text-anchor="middle">10KB</text><line x1="309.92" y1="14" x2="309.92" y2="334" stroke="#e1e0d9" stroke-width="1"/><text x="309.92" y="352" fill="#898781" font-size="10.5" font-family="system-ui, -apple-system, Segoe UI, sans-serif" text-anchor="middle">100KB</text><line x1="391.67" y1="14" x2="391.67" y2="334" stroke="#e1e0d9" stroke-width="1"/><text x="391.67" y="352" fill="#898781" font-size="10.5" font-family="system-ui, -apple-system, Segoe UI, sans-serif" text-anchor="middle">500KB</text><line x1="428.08" y1="14" x2="428.08" y2="334" stroke="#e1e0d9" stroke-width="1"/><text x="428.08" y="352" fill="#898781" font-size="10.5" font-family="system-ui, -apple-system, Segoe UI, sans-serif" text-anchor="middle">1MB</text><line x1="545.04" y1="14" x2="545.04" y2="334" stroke="#e1e0d9" stroke-width="1"/><text x="545.04" y="352" fill="#898781" font-size="10.5" font-family="system-ui, -apple-system, Segoe UI, sans-serif" text-anchor="middle">10MB</text><line x1="662" y1="14" x2="662" y2="334" stroke="#e1e0d9" stroke-width="1"/><text x="662" y="352" fill="#898781" font-size="10.5" font-family="system-ui, -apple-system, Segoe UI, sans-serif" text-anchor="middle">100MB</text><line x1="76" y1="334" x2="662" y2="334" stroke="#c3c2b7" stroke-width="1"/><polyline points="76,295.13 192.96,295.03 309.92,294.7 391.67,257.2 428.08,239.62 545.04,159.81 662,80.18" fill="none" stroke="#2a78d6" stroke-width="2"/><circle cx="76" cy="295.13" r="3.5" fill="#2a78d6" stroke="#fcfcfb" stroke-width="2"><title>Default at 1KB: 3.06 s</title></circle><circle cx="192.96" cy="295.03" r="3.5" fill="#2a78d6" stroke="#fcfcfb" stroke-width="2"><title>Default at 10KB: 3.07 s</title></circle><circle cx="309.92" cy="294.7" r="3.5" fill="#2a78d6" stroke="#fcfcfb" stroke-width="2"><title>Default at 100KB: 3.1 s</title></circle><circle cx="391.67" cy="257.2" r="3.5" fill="#2a78d6" stroke="#fcfcfb" stroke-width="2"><title>Default at 500KB: 9.12 s</title></circle><circle cx="428.08" cy="239.62" r="3.5" fill="#2a78d6" stroke="#fcfcfb" stroke-width="2"><title>Default at 1MB: 15.13 s</title></circle><circle cx="545.04" cy="159.81" r="3.5" fill="#2a78d6" stroke="#fcfcfb" stroke-width="2"><title>Default at 10MB: 2.5 min</title></circle><circle cx="662" cy="80.18" r="3.5" fill="#2a78d6" stroke="#fcfcfb" stroke-width="2"><title>Default at 100MB: 24.8 min</title></circle><polyline points="76,295.01 192.96,295 309.92,294.8 391.67,293.87 428.08,270.67 545.04,201.5 662,122.28" fill="none" stroke="#1baf7a" stroke-width="2"/><circle cx="76" cy="295.01" r="3.5" fill="#1baf7a" stroke="#fcfcfb" stroke-width="2"><title>Dense at 1KB: 3.07 s</title></circle><circle cx="192.96" cy="295" r="3.5" fill="#1baf7a" stroke="#fcfcfb" stroke-width="2"><title>Dense at 10KB: 3.07 s</title></circle><circle cx="309.92" cy="294.8" r="3.5" fill="#1baf7a" stroke="#fcfcfb" stroke-width="2"><title>Dense at 100KB: 3.09 s</title></circle><circle cx="391.67" cy="293.87" r="3.5" fill="#1baf7a" stroke="#fcfcfb" stroke-width="2"><title>Dense at 500KB: 3.17 s</title></circle><circle cx="428.08" cy="270.67" r="3.5" fill="#1baf7a" stroke="#fcfcfb" stroke-width="2"><title>Dense at 1MB: 6.19 s</title></circle><circle cx="545.04" cy="201.5" r="3.5" fill="#1baf7a" stroke="#fcfcfb" stroke-width="2"><title>Dense at 10MB: 45.32 s</title></circle><circle cx="662" cy="122.28" r="3.5" fill="#1baf7a" stroke="#fcfcfb" stroke-width="2"><title>Dense at 100MB: 7.4 min</title></circle><polyline points="76,293.72 192.96,293.74 309.92,293.55 391.67,293.4 428.08,293.56 545.04,256.55 662,188.08" fill="none" stroke="#eda100" stroke-width="2"/><circle cx="76" cy="293.72" r="3.5" fill="#eda100" stroke="#fcfcfb" stroke-width="2"><title>Max4K at 1KB: 3.19 s</title></circle><circle cx="192.96" cy="293.74" r="3.5" fill="#eda100" stroke="#fcfcfb" stroke-width="2"><title>Max4K at 10KB: 3.19 s</title></circle><circle cx="309.92" cy="293.55" r="3.5" fill="#eda100" stroke="#fcfcfb" stroke-width="2"><title>Max4K at 100KB: 3.2 s</title></circle><circle cx="391.67" cy="293.4" r="3.5" fill="#eda100" stroke="#fcfcfb" stroke-width="2"><title>Max4K at 500KB: 3.22 s</title></circle><circle cx="428.08" cy="293.56" r="3.5" fill="#eda100" stroke="#fcfcfb" stroke-width="2"><title>Max4K at 1MB: 3.2 s</title></circle><circle cx="545.04" cy="256.55" r="3.5" fill="#eda100" stroke="#fcfcfb" stroke-width="2"><title>Max4K at 10MB: 9.29 s</title></circle><circle cx="662" cy="188.08" r="3.5" fill="#eda100" stroke="#fcfcfb" stroke-width="2"><title>Max4K at 100MB: 1.1 min</title></circle><polyline points="76,270.45 192.96,270.48 309.92,270.45 391.67,270.52 428.08,270.37 545.04,246.77 662,183.67" fill="none" stroke="#008300" stroke-width="2"/><circle cx="76" cy="270.45" r="3.5" fill="#008300" stroke="#fcfcfb" stroke-width="2"><title>Max4K-R10 at 1KB: 6.23 s</title></circle><circle cx="192.96" cy="270.48" r="3.5" fill="#008300" stroke="#fcfcfb" stroke-width="2"><title>Max4K-R10 at 10KB: 6.22 s</title></circle><circle cx="309.92" cy="270.45" r="3.5" fill="#008300" stroke="#fcfcfb" stroke-width="2"><title>Max4K-R10 at 100KB: 6.23 s</title></circle><circle cx="391.67" cy="270.52" r="3.5" fill="#008300" stroke="#fcfcfb" stroke-width="2"><title>Max4K-R10 at 500KB: 6.22 s</title></circle><circle cx="428.08" cy="270.37" r="3.5" fill="#008300" stroke="#fcfcfb" stroke-width="2"><title>Max4K-R10 at 1MB: 6.24 s</title></circle><circle cx="545.04" cy="246.77" r="3.5" fill="#008300" stroke="#fcfcfb" stroke-width="2"><title>Max4K-R10 at 10MB: 12.31 s</title></circle><circle cx="662" cy="183.67" r="3.5" fill="#008300" stroke="#fcfcfb" stroke-width="2"><title>Max4K-R10 at 100MB: 1.3 min</title></circle></g></svg>
