<svg xmlns="http://www.w3.org/2000/svg" viewBox="0 0 680 426" width="680" height="426" role="img" aria-label="Estimated end-to-end transfer, manual capture (3 s/image)"><rect width="680" height="426" fill="#fcfcfb"/><text x="18" y="21" font-family="system-ui, -apple-system, Segoe UI, sans-serif" font-size="14.5" font-weight="600" fill="#0b0b0b">Estimated end-to-end transfer, manual capture (3 s/image)</text><line x1="18" y1="35" x2="38" y2="35" stroke="#2a78d6" stroke-width="2.5"/><text x="44" y="39" font-family="system-ui, -apple-system, Segoe UI, sans-serif" font-size="11.5" fill="#52514e">Default</text><line x1="105.05" y1="35" x2="125.05" y2="35" stroke="#1baf7a" stroke-width="2.5"/><text x="131.05" y="39" font-family="system-ui, -apple-system, Segoe UI, sans-serif" font-size="11.5" fill="#52514e">Dense</text><line x1="179.8" y1="35" x2="199.8" y2="35" stroke="#eda100" stroke-width="2.5"/><text x="205.8" y="39" font-family="system-ui, -apple-system, Segoe UI, sans-serif" font-size="11.5" fill="#52514e">Max4K</text><line x1="254.55" y1="35" x2="274.55" y2="35" stroke="#008300" stroke-width="2.5"/><text x="280.55" y="39" font-family="system-ui, -apple-system, Segoe UI, sans-serif" font-size="11.5" fill="#52514e">Max4K-R10</text><g transform="translate(0,46)"><line x1="76" y1="334" x2="662" y2="334" stroke="#e1e0d9" stroke-width="1"/><text x="68" y="337.5" fill="#898781" font-size="10.5" font-family="system-ui, -apple-system, Segoe UI, sans-serif" text-anchor="end">1 s</text><line x1="76" y1="270" x2="662" y2="270" stroke="#e1e0d9" stroke-width="1"/><text x="68" y="273.5" fill="#898781" font-size="10.5" font-family="system-ui, -apple-system, Segoe UI, sans-serif" text-anchor="end">10 s</text><line x1="76" y1="206" x2="662" y2="206" stroke="#e1e0d9" stroke-width="1"/><text x="68" y="209.5" fill="#898781" font-size="10.5" font-family="system-ui, -apple-system, Segoe UI, sans-serif" text-anchor="end">1.7 min</text><line x1="76" y1="142" x2="662" y2="142" stroke="#e1e0d9" stroke-width="1"/><text x="68" y="145.5" fill="#898781" font-size="10.5" font-family="system-ui, -apple-system, Segoe UI, sans-serif" text-anchor="end">16.7 min</text><line x1="76" y1="78" x2="662" y2="78" stroke="#e1e0d9" stroke-width="1"/><text x="68" y="81.5" fill="#898781" font-size="10.5" font-family="system-ui, -apple-system, Segoe UI, sans-serif" text-anchor="end">2.78 h</text><line x1="76" y1="14" x2="662" y2="14" stroke="#e1e0d9" stroke-width="1"/><text x="68" y="17.5" fill="#898781" font-size="10.5" font-family="system-ui, -apple-system, Segoe UI, sans-serif" text-anchor="end">27.78 h</text><line x1="76" y1="14" x2="76" y2="334" stroke="#e1e0d9" stroke-width="1"/><text x="76" y="352" fill="#898781" font-size="10.5" font-family="system-ui, -apple-system, Segoe UI, sans-serif" text-anchor="middle">1KB</text><line x1="173.33" y1="14" x2="173.33" y2="334" stroke="#e1e0d9" stroke-width="1"/><text x="173.33" y="352" fill="#898781" font-size="10.5" font-family="system-ui, -apple-system, Segoe UI, sans-serif" text-anchor="middle">10KB</text><line x1="270.66" y1="14" x2="270.66" y2="334" stroke="#e1e0d9" stroke-width="1"/><text x="270.66" y="352" fill="#898781" font-size="10.5" font-family="system-ui, -apple-system, Segoe UI, sans-serif" text-anchor="middle">100KB</text><line x1="338.7" y1="14" x2="338.7" y2="334" stroke="#e1e0d9" stroke-width="1"/><text x="338.7" y="352" fill="#898781" font-size="10.5" font-family="system-ui, -apple-system, Segoe UI, sans-serif" text-anchor="middle">500KB</text><line x1="369" y1="14" x2="369" y2="334" stroke="#e1e0d9" stroke-width="1"/><text x="369" y="352" fill="#898781" font-size="10.5" font-family="system-ui, -apple-system, Segoe UI, sans-serif" text-anchor="middle">1MB</text><line x1="466.33" y1="14" x2="466.33" y2="334" stroke="#e1e0d9" stroke-width="1"/><text x="466.33" y="352" fill="#898781" font-size="10.5" font-family="system-ui, -apple-system, Segoe UI, sans-serif" text-anchor="middle">10MB</text><line x1="563.66" y1="14" x2="563.66" y2="334" stroke="#e1e0d9" stroke-width="1"/><text x="563.66" y="352" fill="#898781" font-size="10.5" font-family="system-ui, -apple-system, Segoe UI, sans-serif" text-anchor="middle">100MB</text><line x1="602.4" y1="14" x2="602.4" y2="334" stroke="#e1e0d9" stroke-width="1"/><text x="602.4" y="352" fill="#898781" font-size="10.5" font-family="system-ui, -apple-system, Segoe UI, sans-serif" text-anchor="middle">250MB</text><line x1="631.7" y1="14" x2="631.7" y2="334" stroke="#e1e0d9" stroke-width="1"/><text x="631.7" y="364" fill="#898781" font-size="10.5" font-family="system-ui, -apple-system, Segoe UI, sans-serif" text-anchor="middle">500MB</text><line x1="662" y1="14" x2="662" y2="334" stroke="#e1e0d9" stroke-width="1"/><text x="662" y="352" fill="#898781" font-size="10.5" font-family="system-ui, -apple-system, Segoe UI, sans-serif" text-anchor="middle">1GB</text><line x1="76" y1="334" x2="662" y2="334" stroke="#c3c2b7" stroke-width="1"/><polyline points="76,302.83 173.33,302.81 270.66,302.29 338.7,272.46 369,258.26 466.33,194.46 563.66,130.77 602.4,105.29 631.7,86.04 662,66.11" fill="none" stroke="#2a78d6" stroke-width="2"/><circle cx="76" cy="302.83" r="3.5" fill="#2a78d6" stroke="#fcfcfb" stroke-width="2"><title>Default at 1KB: 3.07 s</title></circle><circle cx="173.33" cy="302.81" r="3.5" fill="#2a78d6" stroke="#fcfcfb" stroke-width="2"><title>Default at 10KB: 3.07 s</title></circle><circle cx="270.66" cy="302.29" r="3.5" fill="#2a78d6" stroke="#fcfcfb" stroke-width="2"><title>Default at 100KB: 3.13 s</title></circle><circle cx="338.7" cy="272.46" r="3.5" fill="#2a78d6" stroke="#fcfcfb" stroke-width="2"><title>Default at 500KB: 9.15 s</title></circle><circle cx="369" cy="258.26" r="3.5" fill="#2a78d6" stroke="#fcfcfb" stroke-width="2"><title>Default at 1MB: 15.25 s</title></circle><circle cx="466.33" cy="194.46" r="3.5" fill="#2a78d6" stroke="#fcfcfb" stroke-width="2"><title>Default at 10MB: 2.5 min</title></circle><circle cx="563.66" cy="130.77" r="3.5" fill="#2a78d6" stroke="#fcfcfb" stroke-width="2"><title>Default at 100MB: 25 min</title></circle><circle cx="602.4" cy="105.29" r="3.5" fill="#2a78d6" stroke="#fcfcfb" stroke-width="2"><title>Default at 250MB: 1.04 h</title></circle><circle cx="631.7" cy="86.04" r="3.5" fill="#2a78d6" stroke="#fcfcfb" stroke-width="2"><title>Default at 500MB: 2.08 h</title></circle><circle cx="662" cy="66.11" r="3.5" fill="#2a78d6" stroke="#fcfcfb" stroke-width="2"><title>Default at 1GB: 4.26 h</title></circle><polyline points="76,302.69 173.33,302.68 270.66,302.29 338.7,301.54 369,283.01 466.33,227.62 563.66,164.26 602.4,138.93 631.7,119.67 662,99.73" fill="none" stroke="#1baf7a" stroke-width="2"/><circle cx="76" cy="302.69" r="3.5" fill="#1baf7a" stroke="#fcfcfb" stroke-width="2"><title>Dense at 1KB: 3.08 s</title></circle><circle cx="173.33" cy="302.68" r="3.5" fill="#1baf7a" stroke="#fcfcfb" stroke-width="2"><title>Dense at 10KB: 3.09 s</title></circle><circle cx="270.66" cy="302.29" r="3.5" fill="#1baf7a" stroke="#fcfcfb" stroke-width="2"><title>Dense at 100KB: 3.13 s</title></circle><circle cx="338.7" cy="301.54" r="3.5" fill="#1baf7a" stroke="#fcfcfb" stroke-width="2"><title>Dense at 500KB: 3.21 s</title></circle><circle cx="369" cy="283.01" r="3.5" fill="#1baf7a" stroke="#fcfcfb" stroke-width="2"><title>Dense at 1MB: 6.26 s</title></circle><circle cx="466.33" cy="227.62" r="3.5" fill="#1baf7a" stroke="#fcfcfb" stroke-width="2"><title>Dense at 10MB: 45.94 s</title></circle><circle cx="563.66" cy="164.26" r="3.5" fill="#1baf7a" stroke="#fcfcfb" stroke-width="2"><title>Dense at 100MB: 7.5 min</title></circle><circle cx="602.4" cy="138.93" r="3.5" fill="#1baf7a" stroke="#fcfcfb" stroke-width="2"><title>Dense at 250MB: 18.6 min</title></circle><circle cx="631.7" cy="119.67" r="3.5" fill="#1baf7a" stroke="#fcfcfb" stroke-width="2"><title>Dense at 500MB: 37.2 min</title></circle><circle cx="662" cy="99.73" r="3.5" fill="#1baf7a" stroke="#fcfcfb" stroke-width="2"><title>Dense at 1GB: 1.27 h</title></circle><polyline points="76,301.13 173.33,301.26 270.66,301.08 338.7,300.88 369,300.54 466.33,271.69 563.66,216.84 602.4,191.87 631.7,172.62 662,152.67" fill="none" stroke="#eda100" stroke-width="2"/><circle cx="76" cy="301.13" r="3.5" fill="#eda100" stroke="#fcfcfb" stroke-width="2"><title>Max4K at 1KB: 3.26 s</title></circle><circle cx="173.33" cy="301.26" r="3.5" fill="#eda100" stroke="#fcfcfb" stroke-width="2"><title>Max4K at 10KB: 3.25 s</title></circle><circle cx="270.66" cy="301.08" r="3.5" fill="#eda100" stroke="#fcfcfb" stroke-width="2"><title>Max4K at 100KB: 3.27 s</title></circle><circle cx="338.7" cy="300.88" r="3.5" fill="#eda100" stroke="#fcfcfb" stroke-width="2"><title>Max4K at 500KB: 3.29 s</title></circle><circle cx="369" cy="300.54" r="3.5" fill="#eda100" stroke="#fcfcfb" stroke-width="2"><title>Max4K at 1MB: 3.33 s</title></circle><circle cx="466.33" cy="271.69" r="3.5" fill="#eda100" stroke="#fcfcfb" stroke-width="2"><title>Max4K at 10MB: 9.41 s</title></circle><circle cx="563.66" cy="216.84" r="3.5" fill="#eda100" stroke="#fcfcfb" stroke-width="2"><title>Max4K at 100MB: 1.1 min</title></circle><circle cx="602.4" cy="191.87" r="3.5" fill="#eda100" stroke="#fcfcfb" stroke-width="2"><title>Max4K at 250MB: 2.8 min</title></circle><circle cx="631.7" cy="172.62" r="3.5" fill="#eda100" stroke="#fcfcfb" stroke-width="2"><title>Max4K at 500MB: 5.5 min</title></circle><circle cx="662" cy="152.67" r="3.5" fill="#eda100" stroke="#fcfcfb" stroke-width="2"><title>Max4K at 1GB: 11.4 min</title></circle><polyline points="76,282.53 173.33,282.81 270.66,282.76 338.7,282.53 369,282.43 466.33,263.72 563.66,213.21 602.4,188.92 631.7,169.85 662,149.98" fill="none" stroke="#008300" stroke-width="2"/><circle cx="76" cy="282.53" r="3.5" fill="#008300" stroke="#fcfcfb" stroke-width="2"><title>Max4K-R10 at 1KB: 6.37 s</title></circle><circle cx="173.33" cy="282.81" r="3.5" fill="#008300" stroke="#fcfcfb" stroke-width="2"><title>Max4K-R10 at 10KB: 6.31 s</title></circle><circle cx="270.66" cy="282.76" r="3.5" fill="#008300" stroke="#fcfcfb" stroke-width="2"><title>Max4K-R10 at 100KB: 6.32 s</title></circle><circle cx="338.7" cy="282.53" r="3.5" fill="#008300" stroke="#fcfcfb" stroke-width="2"><title>Max4K-R10 at 500KB: 6.37 s</title></circle><circle cx="369" cy="282.43" r="3.5" fill="#008300" stroke="#fcfcfb" stroke-width="2"><title>Max4K-R10 at 1MB: 6.39 s</title></circle><circle cx="466.33" cy="263.72" r="3.5" fill="#008300" stroke="#fcfcfb" stroke-width="2"><title>Max4K-R10 at 10MB: 12.53 s</title></circle><circle cx="563.66" cy="213.21" r="3.5" fill="#008300" stroke="#fcfcfb" stroke-width="2"><title>Max4K-R10 at 100MB: 1.3 min</title></circle><circle cx="602.4" cy="188.92" r="3.5" fill="#008300" stroke="#fcfcfb" stroke-width="2"><title>Max4K-R10 at 250MB: 3.1 min</title></circle><circle cx="631.7" cy="169.85" r="3.5" fill="#008300" stroke="#fcfcfb" stroke-width="2"><title>Max4K-R10 at 500MB: 6.1 min</title></circle><circle cx="662" cy="149.98" r="3.5" fill="#008300" stroke="#fcfcfb" stroke-width="2"><title>Max4K-R10 at 1GB: 12.5 min</title></circle></g></svg>
