<svg xmlns="http://www.w3.org/2000/svg" viewBox="0 0 680 426" width="680" height="426" role="img" aria-label="Estimated end-to-end transfer, manual capture (3 s/image)"><rect width="680" height="426" fill="#1a1a19"/><text x="18" y="21" font-family="system-ui, -apple-system, Segoe UI, sans-serif" font-size="14.5" font-weight="600" fill="#ffffff">Estimated end-to-end transfer, manual capture (3 s/image)</text><line x1="18" y1="35" x2="38" y2="35" stroke="#3987e5" stroke-width="2.5"/><text x="44" y="39" font-family="system-ui, -apple-system, Segoe UI, sans-serif" font-size="11.5" fill="#c3c2b7">Default</text><line x1="105.05" y1="35" x2="125.05" y2="35" stroke="#199e70" stroke-width="2.5"/><text x="131.05" y="39" font-family="system-ui, -apple-system, Segoe UI, sans-serif" font-size="11.5" fill="#c3c2b7">Dense</text><line x1="179.8" y1="35" x2="199.8" y2="35" stroke="#c98500" stroke-width="2.5"/><text x="205.8" y="39" font-family="system-ui, -apple-system, Segoe UI, sans-serif" font-size="11.5" fill="#c3c2b7">Max4K</text><line x1="254.55" y1="35" x2="274.55" y2="35" stroke="#008300" stroke-width="2.5"/><text x="280.55" y="39" font-family="system-ui, -apple-system, Segoe UI, sans-serif" font-size="11.5" fill="#c3c2b7">Max4K-R10</text><g transform="translate(0,46)"><line x1="76" y1="334" x2="662" y2="334" stroke="#2c2c2a" stroke-width="1"/><text x="68" y="337.5" fill="#898781" font-size="10.5" font-family="system-ui, -apple-system, Segoe UI, sans-serif" text-anchor="end">1 s</text><line x1="76" y1="270" x2="662" y2="270" stroke="#2c2c2a" stroke-width="1"/><text x="68" y="273.5" fill="#898781" font-size="10.5" font-family="system-ui, -apple-system, Segoe UI, sans-serif" text-anchor="end">10 s</text><line x1="76" y1="206" x2="662" y2="206" stroke="#2c2c2a" stroke-width="1"/><text x="68" y="209.5" fill="#898781" font-size="10.5" font-family="system-ui, -apple-system, Segoe UI, sans-serif" text-anchor="end">1.7 min</text><line x1="76" y1="142" x2="662" y2="142" stroke="#2c2c2a" stroke-width="1"/><text x="68" y="145.5" fill="#898781" font-size="10.5" font-family="system-ui, -apple-system, Segoe UI, sans-serif" text-anchor="end">16.7 min</text><line x1="76" y1="78" x2="662" y2="78" stroke="#2c2c2a" stroke-width="1"/><text x="68" y="81.5" fill="#898781" font-size="10.5" font-family="system-ui, -apple-system, Segoe UI, sans-serif" text-anchor="end">2.78 h</text><line x1="76" y1="14" x2="662" y2="14" stroke="#2c2c2a" stroke-width="1"/><text x="68" y="17.5" fill="#898781" font-size="10.5" font-family="system-ui, -apple-system, Segoe UI, sans-serif" text-anchor="end">27.78 h</text><line x1="76" y1="14" x2="76" y2="334" stroke="#2c2c2a" stroke-width="1"/><text x="76" y="352" fill="#898781" font-size="10.5" font-family="system-ui, -apple-system, Segoe UI, sans-serif" text-anchor="middle">1KB</text><line x1="173.33" y1="14" x2="173.33" y2="334" stroke="#2c2c2a" stroke-width="1"/><text x="173.33" y="352" fill="#898781" font-size="10.5" font-family="system-ui, -apple-system, Segoe UI, sans-serif" text-anchor="middle">10KB</text><line x1="270.66" y1="14" x2="270.66" y2="334" stroke="#2c2c2a" stroke-width="1"/><text x="270.66" y="352" fill="#898781" font-size="10.5" font-family="system-ui, -apple-system, Segoe UI, sans-serif" text-anchor="middle">100KB</text><line x1="338.7" y1="14" x2="338.7" y2="334" stroke="#2c2c2a" stroke-width="1"/><text x="338.7" y="352" fill="#898781" font-size="10.5" font-family="system-ui, -apple-system, Segoe UI, sans-serif" text-anchor="middle">500KB</text><line x1="369" y1="14" x2="369" y2="334" stroke="#2c2c2a" stroke-width="1"/><text x="369" y="352" fill="#898781" font-size="10.5" font-family="system-ui, -apple-system, Segoe UI, sans-serif" text-anchor="middle">1MB</text><line x1="466.33" y1="14" x2="466.33" y2="334" stroke="#2c2c2a" stroke-width="1"/><text x="466.33" y="352" fill="#898781" font-size="10.5" font-family="system-ui, -apple-system, Segoe UI, sans-serif" text-anchor="middle">10MB</text><line x1="563.66" y1="14" x2="563.66" y2="334" stroke="#2c2c2a" stroke-width="1"/><text x="563.66" y="352" fill="#898781" font-size="10.5" font-family="system-ui, -apple-system, Segoe UI, sans-serif" text-anchor="middle">100MB</text><line x1="602.4" y1="14" x2="602.4" y2="334" stroke="#2c2c2a" stroke-width="1"/><text x="602.4" y="352" fill="#898781" font-size="10.5" font-family="system-ui, -apple-system, Segoe UI, sans-serif" text-anchor="middle">250MB</text><line x1="631.7" y1="14" x2="631.7" y2="334" stroke="#2c2c2a" stroke-width="1"/><text x="631.7" y="364" fill="#898781" font-size="10.5" font-family="system-ui, -apple-system, Segoe UI, sans-serif" text-anchor="middle">500MB</text><line x1="662" y1="14" x2="662" y2="334" stroke="#2c2c2a" stroke-width="1"/><text x="662" y="352" fill="#898781" font-size="10.5" font-family="system-ui, -apple-system, Segoe UI, sans-serif" text-anchor="middle">1GB</text><line x1="76" y1="334" x2="662" y2="334" stroke="#383835" stroke-width="1"/><polyline points="76,302.89 173.33,302.82 270.66,302.5 338.7,272.53 369,258.5 466.33,194.64 563.66,130.94 602.4,105.47 631.7,86.22 662,66.3" fill="none" stroke="#3987e5" stroke-width="2"/><circle cx="76" cy="302.89" r="3.5" fill="#3987e5" stroke="#1a1a19" stroke-width="2"><title>Default at 1KB: 3.06 s</title></circle><circle cx="173.33" cy="302.82" r="3.5" fill="#3987e5" stroke="#1a1a19" stroke-width="2"><title>Default at 10KB: 3.07 s</title></circle><circle cx="270.66" cy="302.5" r="3.5" fill="#3987e5" stroke="#1a1a19" stroke-width="2"><title>Default at 100KB: 3.11 s</title></circle><circle cx="338.7" cy="272.53" r="3.5" fill="#3987e5" stroke="#1a1a19" stroke-width="2"><title>Default at 500KB: 9.13 s</title></circle><circle cx="369" cy="258.5" r="3.5" fill="#3987e5" stroke="#1a1a19" stroke-width="2"><title>Default at 1MB: 15.12 s</title></circle><circle cx="466.33" cy="194.64" r="3.5" fill="#3987e5" stroke="#1a1a19" stroke-width="2"><title>Default at 10MB: 2.5 min</title></circle><circle cx="563.66" cy="130.94" r="3.5" fill="#3987e5" stroke="#1a1a19" stroke-width="2"><title>Default at 100MB: 24.8 min</title></circle><circle cx="602.4" cy="105.47" r="3.5" fill="#3987e5" stroke="#1a1a19" stroke-width="2"><title>Default at 250MB: 1.03 h</title></circle><circle cx="631.7" cy="86.22" r="3.5" fill="#3987e5" stroke="#1a1a19" stroke-width="2"><title>Default at 500MB: 2.07 h</title></circle><circle cx="662" cy="66.3" r="3.5" fill="#3987e5" stroke="#1a1a19" stroke-width="2"><title>Default at 1GB: 4.23 h</title></circle><polyline points="76,302.71 173.33,302.73 270.66,302.53 338.7,301.95 369,283.34 466.33,227.97 563.66,164.63 602.4,139.26 631.7,120.01 662,100.11" fill="none" stroke="#199e70" stroke-width="2"/><circle cx="76" cy="302.71" r="3.5" fill="#199e70" stroke="#1a1a19" stroke-width="2"><title>Dense at 1KB: 3.08 s</title></circle><circle cx="173.33" cy="302.73" r="3.5" fill="#199e70" stroke="#1a1a19" stroke-width="2"><title>Dense at 10KB: 3.08 s</title></circle><circle cx="270.66" cy="302.53" r="3.5" fill="#199e70" stroke="#1a1a19" stroke-width="2"><title>Dense at 100KB: 3.1 s</title></circle><circle cx="338.7" cy="301.95" r="3.5" fill="#199e70" stroke="#1a1a19" stroke-width="2"><title>Dense at 500KB: 3.17 s</title></circle><circle cx="369" cy="283.34" r="3.5" fill="#199e70" stroke="#1a1a19" stroke-width="2"><title>Dense at 1MB: 6.19 s</title></circle><circle cx="466.33" cy="227.97" r="3.5" fill="#199e70" stroke="#1a1a19" stroke-width="2"><title>Dense at 10MB: 45.36 s</title></circle><circle cx="563.66" cy="164.63" r="3.5" fill="#199e70" stroke="#1a1a19" stroke-width="2"><title>Dense at 100MB: 7.4 min</title></circle><circle cx="602.4" cy="139.26" r="3.5" fill="#199e70" stroke="#1a1a19" stroke-width="2"><title>Dense at 250MB: 18.4 min</title></circle><circle cx="631.7" cy="120.01" r="3.5" fill="#199e70" stroke="#1a1a19" stroke-width="2"><title>Dense at 500MB: 36.8 min</title></circle><circle cx="662" cy="100.11" r="3.5" fill="#199e70" stroke="#1a1a19" stroke-width="2"><title>Dense at 1GB: 1.25 h</title></circle><polyline points="76,301.74 173.33,301.63 270.66,301.67 338.7,301.51 369,301.53 466.33,272.17 563.66,217.26 602.4,192.33 631.7,173.07 662,153.28" fill="none" stroke="#c98500" stroke-width="2"/><circle cx="76" cy="301.74" r="3.5" fill="#c98500" stroke="#1a1a19" stroke-width="2"><title>Max4K at 1KB: 3.19 s</title></circle><circle cx="173.33" cy="301.63" r="3.5" fill="#c98500" stroke="#1a1a19" stroke-width="2"><title>Max4K at 10KB: 3.2 s</title></circle><circle cx="270.66" cy="301.67" r="3.5" fill="#c98500" stroke="#1a1a19" stroke-width="2"><title>Max4K at 100KB: 3.2 s</title></circle><circle cx="338.7" cy="301.51" r="3.5" fill="#c98500" stroke="#1a1a19" stroke-width="2"><title>Max4K at 500KB: 3.22 s</title></circle><circle cx="369" cy="301.53" r="3.5" fill="#c98500" stroke="#1a1a19" stroke-width="2"><title>Max4K at 1MB: 3.22 s</title></circle><circle cx="466.33" cy="272.17" r="3.5" fill="#c98500" stroke="#1a1a19" stroke-width="2"><title>Max4K at 10MB: 9.25 s</title></circle><circle cx="563.66" cy="217.26" r="3.5" fill="#c98500" stroke="#1a1a19" stroke-width="2"><title>Max4K at 100MB: 1.1 min</title></circle><circle cx="602.4" cy="192.33" r="3.5" fill="#c98500" stroke="#1a1a19" stroke-width="2"><title>Max4K at 250MB: 2.7 min</title></circle><circle cx="631.7" cy="173.07" r="3.5" fill="#c98500" stroke="#1a1a19" stroke-width="2"><title>Max4K at 500MB: 5.5 min</title></circle><circle cx="662" cy="153.28" r="3.5" fill="#c98500" stroke="#1a1a19" stroke-width="2"><title>Max4K at 1GB: 11.1 min</title></circle><polyline points="76,283.16 173.33,283.31 270.66,283.14 338.7,283.07 369,283.13 466.33,264.27 563.66,213.75 602.4,189.37 631.7,170.36 662,150.66" fill="none" stroke="#008300" stroke-width="2"/><circle cx="76" cy="283.16" r="3.5" fill="#008300" stroke="#1a1a19" stroke-width="2"><title>Max4K-R10 at 1KB: 6.23 s</title></circle><circle cx="173.33" cy="283.31" r="3.5" fill="#008300" stroke="#1a1a19" stroke-width="2"><title>Max4K-R10 at 10KB: 6.19 s</title></circle><circle cx="270.66" cy="283.14" r="3.5" fill="#008300" stroke="#1a1a19" stroke-width="2"><title>Max4K-R10 at 100KB: 6.23 s</title></circle><circle cx="338.7" cy="283.07" r="3.5" fill="#008300" stroke="#1a1a19" stroke-width="2"><title>Max4K-R10 at 500KB: 6.25 s</title></circle><circle cx="369" cy="283.13" r="3.5" fill="#008300" stroke="#1a1a19" stroke-width="2"><title>Max4K-R10 at 1MB: 6.24 s</title></circle><circle cx="466.33" cy="264.27" r="3.5" fill="#008300" stroke="#1a1a19" stroke-width="2"><title>Max4K-R10 at 10MB: 12.29 s</title></circle><circle cx="563.66" cy="213.75" r="3.5" fill="#008300" stroke="#1a1a19" stroke-width="2"><title>Max4K-R10 at 100MB: 1.3 min</title></circle><circle cx="602.4" cy="189.37" r="3.5" fill="#008300" stroke="#1a1a19" stroke-width="2"><title>Max4K-R10 at 250MB: 3 min</title></circle><circle cx="631.7" cy="170.36" r="3.5" fill="#008300" stroke="#1a1a19" stroke-width="2"><title>Max4K-R10 at 500MB: 6 min</title></circle><circle cx="662" cy="150.66" r="3.5" fill="#008300" stroke="#1a1a19" stroke-width="2"><title>Max4K-R10 at 1GB: 12.2 min</title></circle></g></svg>
