<svg xmlns="http://www.w3.org/2000/svg" viewBox="0 0 680 426" width="680" height="426" role="img" aria-label="Estimated end-to-end transfer, automated capture (0.5 s/image)"><rect width="680" height="426" fill="#1a1a19"/><text x="18" y="21" font-family="system-ui, -apple-system, Segoe UI, sans-serif" font-size="14.5" font-weight="600" fill="#ffffff">Estimated end-to-end transfer, automated capture (0.5 s/image)</text><line x1="18" y1="35" x2="38" y2="35" stroke="#3987e5" stroke-width="2.5"/><text x="44" y="39" font-family="system-ui, -apple-system, Segoe UI, sans-serif" font-size="11.5" fill="#c3c2b7">Default</text><line x1="105.05" y1="35" x2="125.05" y2="35" stroke="#199e70" stroke-width="2.5"/><text x="131.05" y="39" font-family="system-ui, -apple-system, Segoe UI, sans-serif" font-size="11.5" fill="#c3c2b7">Dense</text><line x1="179.8" y1="35" x2="199.8" y2="35" stroke="#c98500" stroke-width="2.5"/><text x="205.8" y="39" font-family="system-ui, -apple-system, Segoe UI, sans-serif" font-size="11.5" fill="#c3c2b7">Max4K</text><line x1="254.55" y1="35" x2="274.55" y2="35" stroke="#008300" stroke-width="2.5"/><text x="280.55" y="39" font-family="system-ui, -apple-system, Segoe UI, sans-serif" font-size="11.5" fill="#c3c2b7">Max4K-R10</text><g transform="translate(0,46)"><line x1="76" y1="334" x2="662" y2="334" stroke="#2c2c2a" stroke-width="1"/><text x="68" y="337.5" fill="#898781" font-size="10.5" font-family="system-ui, -apple-system, Segoe UI, sans-serif" text-anchor="end">100 ms</text><line x1="76" y1="270" x2="662" y2="270" stroke="#2c2c2a" stroke-width="1"/><text x="68" y="273.5" fill="#898781" font-size="10.5" font-family="system-ui, -apple-system, Segoe UI, sans-serif" text-anchor="end">1 s</text><line x1="76" y1="206" x2="662" y2="206" stroke="#2c2c2a" stroke-width="1"/><text x="68" y="209.5" fill="#898781" font-size="10.5" font-family="system-ui, -apple-system, Segoe UI, sans-serif" text-anchor="end">10 s</text><line x1="76" y1="142" x2="662" y2="142" stroke="#2c2c2a" stroke-width="1"/><text x="68" y="145.5" fill="#898781" font-size="10.5" font-family="system-ui, -apple-system, Segoe UI, sans-serif" text-anchor="end">1.7 min</text><line x1="76" y1="78" x2="662" y2="78" stroke="#2c2c2a" stroke-width="1"/><text x="68" y="81.5" fill="#898781" font-size="10.5" font-family="system-ui, -apple-system, Segoe UI, sans-serif" text-anchor="end">16.7 min</text><line x1="76" y1="14" x2="662" y2="14" stroke="#2c2c2a" stroke-width="1"/><text x="68" y="17.5" fill="#898781" font-size="10.5" font-family="system-ui, -apple-system, Segoe UI, sans-serif" text-anchor="end">2.78 h</text><line x1="76" y1="14" x2="76" y2="334" stroke="#2c2c2a" stroke-width="1"/><text x="76" y="352" fill="#898781" font-size="10.5" font-family="system-ui, -apple-system, Segoe UI, sans-serif" text-anchor="middle">1KB</text><line x1="173.33" y1="14" x2="173.33" y2="334" stroke="#2c2c2a" stroke-width="1"/><text x="173.33" y="352" fill="#898781" font-size="10.5" font-family="system-ui, -apple-system, Segoe UI, sans-serif" text-anchor="middle">10KB</text><line x1="270.66" y1="14" x2="270.66" y2="334" stroke="#2c2c2a" stroke-width="1"/><text x="270.66" y="352" fill="#898781" font-size="10.5" font-family="system-ui, -apple-system, Segoe UI, sans-serif" text-anchor="middle">100KB</text><line x1="338.7" y1="14" x2="338.7" y2="334" stroke="#2c2c2a" stroke-width="1"/><text x="338.7" y="352" fill="#898781" font-size="10.5" font-family="system-ui, -apple-system, Segoe UI, sans-serif" text-anchor="middle">500KB</text><line x1="369" y1="14" x2="369" y2="334" stroke="#2c2c2a" stroke-width="1"/><text x="369" y="352" fill="#898781" font-size="10.5" font-family="system-ui, -apple-system, Segoe UI, sans-serif" text-anchor="middle">1MB</text><line x1="466.33" y1="14" x2="466.33" y2="334" stroke="#2c2c2a" stroke-width="1"/><text x="466.33" y="352" fill="#898781" font-size="10.5" font-family="system-ui, -apple-system, Segoe UI, sans-serif" text-anchor="middle">10MB</text><line x1="563.66" y1="14" x2="563.66" y2="334" stroke="#2c2c2a" stroke-width="1"/><text x="563.66" y="352" fill="#898781" font-size="10.5" font-family="system-ui, -apple-system, Segoe UI, sans-serif" text-anchor="middle">100MB</text><line x1="602.4" y1="14" x2="602.4" y2="334" stroke="#2c2c2a" stroke-width="1"/><text x="602.4" y="352" fill="#898781" font-size="10.5" font-family="system-ui, -apple-system, Segoe UI, sans-serif" text-anchor="middle">250MB</text><line x1="631.7" y1="14" x2="631.7" y2="334" stroke="#2c2c2a" stroke-width="1"/><text x="631.7" y="364" fill="#898781" font-size="10.5" font-family="system-ui, -apple-system, Segoe UI, sans-serif" text-anchor="middle">500MB</text><line x1="662" y1="14" x2="662" y2="334" stroke="#2c2c2a" stroke-width="1"/><text x="662" y="352" fill="#898781" font-size="10.5" font-family="system-ui, -apple-system, Segoe UI, sans-serif" text-anchor="middle">1GB</text><line x1="76" y1="334" x2="662" y2="334" stroke="#383835" stroke-width="1"/><polyline points="76,285.98 173.33,285.62 270.66,283.92 338.7,256.43 369,243.19 466.33,180.01 563.66,116.38 602.4,90.99 631.7,71.76 662,51.85" fill="none" stroke="#3987e5" stroke-width="2"/><circle cx="76" cy="285.98" r="3.5" fill="#3987e5" stroke="#1a1a19" stroke-width="2"><title>Default at 1KB: 562.7 ms</title></circle><circle cx="173.33" cy="285.62" r="3.5" fill="#3987e5" stroke="#1a1a19" stroke-width="2"><title>Default at 10KB: 570 ms</title></circle><circle cx="270.66" cy="283.92" r="3.5" fill="#3987e5" stroke="#1a1a19" stroke-width="2"><title>Default at 100KB: 606.1 ms</title></circle><circle cx="338.7" cy="256.43" r="3.5" fill="#3987e5" stroke="#1a1a19" stroke-width="2"><title>Default at 500KB: 1.63 s</title></circle><circle cx="369" cy="243.19" r="3.5" fill="#3987e5" stroke="#1a1a19" stroke-width="2"><title>Default at 1MB: 2.62 s</title></circle><circle cx="466.33" cy="180.01" r="3.5" fill="#3987e5" stroke="#1a1a19" stroke-width="2"><title>Default at 10MB: 25.47 s</title></circle><circle cx="563.66" cy="116.38" r="3.5" fill="#3987e5" stroke="#1a1a19" stroke-width="2"><title>Default at 100MB: 4.2 min</title></circle><circle cx="602.4" cy="90.99" r="3.5" fill="#3987e5" stroke="#1a1a19" stroke-width="2"><title>Default at 250MB: 10.4 min</title></circle><circle cx="631.7" cy="71.76" r="3.5" fill="#3987e5" stroke="#1a1a19" stroke-width="2"><title>Default at 500MB: 20.9 min</title></circle><circle cx="662" cy="51.85" r="3.5" fill="#3987e5" stroke="#1a1a19" stroke-width="2"><title>Default at 1GB: 42.7 min</title></circle><polyline points="76,285.01 173.33,285.15 270.66,284.07 338.7,281.22 369,265.2 466.33,212.68 563.66,149.83 602.4,124.38 631.7,105.21 662,85.38" fill="none" stroke="#199e70" stroke-width="2"/><circle cx="76" cy="285.01" r="3.5" fill="#199e70" stroke="#1a1a19" stroke-width="2"><title>Dense at 1KB: 582.7 ms</title></circle><circle cx="173.33" cy="285.15" r="3.5" fill="#199e70" stroke="#1a1a19" stroke-width="2"><title>Dense at 10KB: 579.8 ms</title></circle><circle cx="270.66" cy="284.07" r="3.5" fill="#199e70" stroke="#1a1a19" stroke-width="2"><title>Dense at 100KB: 602.7 ms</title></circle><circle cx="338.7" cy="281.22" r="3.5" fill="#199e70" stroke="#1a1a19" stroke-width="2"><title>Dense at 500KB: 668 ms</title></circle><circle cx="369" cy="265.2" r="3.5" fill="#199e70" stroke="#1a1a19" stroke-width="2"><title>Dense at 1MB: 1.19 s</title></circle><circle cx="466.33" cy="212.68" r="3.5" fill="#199e70" stroke="#1a1a19" stroke-width="2"><title>Dense at 10MB: 7.86 s</title></circle><circle cx="563.66" cy="149.83" r="3.5" fill="#199e70" stroke="#1a1a19" stroke-width="2"><title>Dense at 100MB: 1.3 min</title></circle><circle cx="602.4" cy="124.38" r="3.5" fill="#199e70" stroke="#1a1a19" stroke-width="2"><title>Dense at 250MB: 3.1 min</title></circle><circle cx="631.7" cy="105.21" r="3.5" fill="#199e70" stroke="#1a1a19" stroke-width="2"><title>Dense at 500MB: 6.3 min</title></circle><circle cx="662" cy="85.38" r="3.5" fill="#199e70" stroke="#1a1a19" stroke-width="2"><title>Dense at 1GB: 12.8 min</title></circle><polyline points="76,280.24 173.33,279.72 270.66,279.9 338.7,279.18 369,279.26 466.33,254.47 563.66,201.69 602.4,176.84 631.7,157.62 662,137.8" fill="none" stroke="#c98500" stroke-width="2"/><circle cx="76" cy="280.24" r="3.5" fill="#c98500" stroke="#1a1a19" stroke-width="2"><title>Max4K at 1KB: 691.9 ms</title></circle><circle cx="173.33" cy="279.72" r="3.5" fill="#c98500" stroke="#1a1a19" stroke-width="2"><title>Max4K at 10KB: 704.9 ms</title></circle><circle cx="270.66" cy="279.9" r="3.5" fill="#c98500" stroke="#1a1a19" stroke-width="2"><title>Max4K at 100KB: 700.2 ms</title></circle><circle cx="338.7" cy="279.18" r="3.5" fill="#c98500" stroke="#1a1a19" stroke-width="2"><title>Max4K at 500KB: 718.8 ms</title></circle><circle cx="369" cy="279.26" r="3.5" fill="#c98500" stroke="#1a1a19" stroke-width="2"><title>Max4K at 1MB: 716.6 ms</title></circle><circle cx="466.33" cy="254.47" r="3.5" fill="#c98500" stroke="#1a1a19" stroke-width="2"><title>Max4K at 10MB: 1.75 s</title></circle><circle cx="563.66" cy="201.69" r="3.5" fill="#c98500" stroke="#1a1a19" stroke-width="2"><title>Max4K at 100MB: 11.68 s</title></circle><circle cx="602.4" cy="176.84" r="3.5" fill="#c98500" stroke="#1a1a19" stroke-width="2"><title>Max4K at 250MB: 28.55 s</title></circle><circle cx="631.7" cy="157.62" r="3.5" fill="#c98500" stroke="#1a1a19" stroke-width="2"><title>Max4K at 500MB: 57.01 s</title></circle><circle cx="662" cy="137.8" r="3.5" fill="#c98500" stroke="#1a1a19" stroke-width="2"><title>Max4K at 1GB: 1.9 min</title></circle><polyline points="76,264.3 173.33,265.05 270.66,264.19 338.7,263.81 369,264.11 466.33,246.98 563.66,198.36 602.4,173.78 631.7,154.86 662,135.28" fill="none" stroke="#008300" stroke-width="2"/><circle cx="76" cy="264.3" r="3.5" fill="#008300" stroke="#1a1a19" stroke-width="2"><title>Max4K-R10 at 1KB: 1.23 s</title></circle><circle cx="173.33" cy="265.05" r="3.5" fill="#008300" stroke="#1a1a19" stroke-width="2"><title>Max4K-R10 at 10KB: 1.19 s</title></circle><circle cx="270.66" cy="264.19" r="3.5" fill="#008300" stroke="#1a1a19" stroke-width="2"><title>Max4K-R10 at 100KB: 1.23 s</title></circle><circle cx="338.7" cy="263.81" r="3.5" fill="#008300" stroke="#1a1a19" stroke-width="2"><title>Max4K-R10 at 500KB: 1.25 s</title></circle><circle cx="369" cy="264.11" r="3.5" fill="#008300" stroke="#1a1a19" stroke-width="2"><title>Max4K-R10 at 1MB: 1.24 s</title></circle><circle cx="466.33" cy="246.98" r="3.5" fill="#008300" stroke="#1a1a19" stroke-width="2"><title>Max4K-R10 at 10MB: 2.29 s</title></circle><circle cx="563.66" cy="198.36" r="3.5" fill="#008300" stroke="#1a1a19" stroke-width="2"><title>Max4K-R10 at 100MB: 13.16 s</title></circle><circle cx="602.4" cy="173.78" r="3.5" fill="#008300" stroke="#1a1a19" stroke-width="2"><title>Max4K-R10 at 250MB: 31.88 s</title></circle><circle cx="631.7" cy="154.86" r="3.5" fill="#008300" stroke="#1a1a19" stroke-width="2"><title>Max4K-R10 at 500MB: 1 min</title></circle><circle cx="662" cy="135.28" r="3.5" fill="#008300" stroke="#1a1a19" stroke-width="2"><title>Max4K-R10 at 1GB: 2.1 min</title></circle></g></svg>
