<svg xmlns="http://www.w3.org/2000/svg" viewBox="0 0 680 426" width="680" height="426" role="img" aria-label="Estimated end-to-end transfer, automated capture (0.5 s/image)"><rect width="680" height="426" fill="#1a1a19"/><text x="18" y="21" font-family="system-ui, -apple-system, Segoe UI, sans-serif" font-size="14.5" font-weight="600" fill="#ffffff">Estimated end-to-end transfer, automated capture (0.5 s/image)</text><line x1="18" y1="35" x2="38" y2="35" stroke="#3987e5" stroke-width="2.5"/><text x="44" y="39" font-family="system-ui, -apple-system, Segoe UI, sans-serif" font-size="11.5" fill="#c3c2b7">Default</text><line x1="105.05" y1="35" x2="125.05" y2="35" stroke="#199e70" stroke-width="2.5"/><text x="131.05" y="39" font-family="system-ui, -apple-system, Segoe UI, sans-serif" font-size="11.5" fill="#c3c2b7">Dense</text><line x1="179.8" y1="35" x2="199.8" y2="35" stroke="#c98500" stroke-width="2.5"/><text x="205.8" y="39" font-family="system-ui, -apple-system, Segoe UI, sans-serif" font-size="11.5" fill="#c3c2b7">Max4K</text><line x1="254.55" y1="35" x2="274.55" y2="35" stroke="#008300" stroke-width="2.5"/><text x="280.55" y="39" font-family="system-ui, -apple-system, Segoe UI, sans-serif" font-size="11.5" fill="#c3c2b7">Max4K-R10</text><g transform="translate(0,46)"><line x1="76" y1="334" x2="662" y2="334" stroke="#2c2c2a" stroke-width="1"/><text x="68" y="337.5" fill="#898781" font-size="10.5" font-family="system-ui, -apple-system, Segoe UI, sans-serif" text-anchor="end">100 ms</text><line x1="76" y1="254" x2="662" y2="254" stroke="#2c2c2a" stroke-width="1"/><text x="68" y="257.5" fill="#898781" font-size="10.5" font-family="system-ui, -apple-system, Segoe UI, sans-serif" text-anchor="end">1 s</text><line x1="76" y1="174" x2="662" y2="174" stroke="#2c2c2a" stroke-width="1"/><text x="68" y="177.5" fill="#898781" font-size="10.5" font-family="system-ui, -apple-system, Segoe UI, sans-serif" text-anchor="end">10 s</text><line x1="76" y1="94" x2="662" y2="94" stroke="#2c2c2a" stroke-width="1"/><text x="68" y="97.5" fill="#898781" font-size="10.5" font-family="system-ui, -apple-system, Segoe UI, sans-serif" text-anchor="end">1.7 min</text><line x1="76" y1="14" x2="662" y2="14" stroke="#2c2c2a" stroke-width="1"/><text x="68" y="17.5" fill="#898781" font-size="10.5" font-family="system-ui, -apple-system, Segoe UI, sans-serif" text-anchor="end">16.7 min</text><line x1="76" y1="14" x2="76" y2="334" stroke="#2c2c2a" stroke-width="1"/><text x="76" y="352" fill="#898781" font-size="10.5" font-family="system-ui, -apple-system, Segoe UI, sans-serif" text-anchor="middle">1KB</text><line x1="192.96" y1="14" x2="192.96" y2="334" stroke="#2c2c2a" stroke-width="1"/><text x="192.96" y="352" fill="#898781" font-size="10.5" font-family="system-ui, -apple-system, Segoe UI, sans-serif" text-anchor="middle">10KB</text><line x1="309.92" y1="14" x2="309.92" y2="334" stroke="#2c2c2a" stroke-width="1"/><text x="309.92" y="352" fill="#898781" font-size="10.5" font-family="system-ui, -apple-system, Segoe UI, sans-serif" text-anchor="middle">100KB</text><line x1="391.67" y1="14" x2="391.67" y2="334" stroke="#2c2c2a" stroke-width="1"/><text x="391.67" y="352" fill="#898781" font-size="10.5" font-family="system-ui, -apple-system, Segoe UI, sans-serif" text-anchor="middle">500KB</text><line x1="428.08" y1="14" x2="428.08" y2="334" stroke="#2c2c2a" stroke-width="1"/><text x="428.08" y="352" fill="#898781" font-size="10.5" font-family="system-ui, -apple-system, Segoe UI, sans-serif" text-anchor="middle">1MB</text><line x1="545.04" y1="14" x2="545.04" y2="334" stroke="#2c2c2a" stroke-width="1"/><text x="545.04" y="352" fill="#898781" font-size="10.5" font-family="system-ui, -apple-system, Segoe UI, sans-serif" text-anchor="middle">10MB</text><line x1="662" y1="14" x2="662" y2="334" stroke="#2c2c2a" stroke-width="1"/><text x="662" y="352" fill="#898781" font-size="10.5" font-family="system-ui, -apple-system, Segoe UI, sans-serif" text-anchor="middle">100MB</text><line x1="76" y1="334" x2="662" y2="334" stroke="#383835" stroke-width="1"/><polyline points="76,274.07 192.96,273.55 309.92,271.81 391.67,237.23 428.08,220.44 545.04,141.56 662,62" fill="none" stroke="#3987e5" stroke-width="2"/><circle cx="76" cy="274.07" r="3.5" fill="#3987e5" stroke="#1a1a19" stroke-width="2"><title>Default at 1KB: 561.3 ms</title></circle><circle cx="192.96" cy="273.55" r="3.5" fill="#3987e5" stroke="#1a1a19" stroke-width="2"><title>Default at 10KB: 569.7 ms</title></circle><circle cx="309.92" cy="271.81" r="3.5" fill="#3987e5" stroke="#1a1a19" stroke-width="2"><title>Default at 100KB: 598.9 ms</title></circle><circle cx="391.67" cy="237.23" r="3.5" fill="#3987e5" stroke="#1a1a19" stroke-width="2"><title>Default at 500KB: 1.62 s</title></circle><circle cx="428.08" cy="220.44" r="3.5" fill="#3987e5" stroke="#1a1a19" stroke-width="2"><title>Default at 1MB: 2.63 s</title></circle><circle cx="545.04" cy="141.56" r="3.5" fill="#3987e5" stroke="#1a1a19" stroke-width="2"><title>Default at 10MB: 25.44 s</title></circle><circle cx="662" cy="62" r="3.5" fill="#3987e5" stroke="#1a1a19" stroke-width="2"><title>Default at 100MB: 4.2 min</title></circle><polyline points="76,273.43 192.96,273.38 309.92,272.31 391.67,267.69 428.08,248 545.04,182.56 662,103.73" fill="none" stroke="#199e70" stroke-width="2"/><circle cx="76" cy="273.43" r="3.5" fill="#199e70" stroke="#1a1a19" stroke-width="2"><title>Dense at 1KB: 571.6 ms</title></circle><circle cx="192.96" cy="273.38" r="3.5" fill="#199e70" stroke="#1a1a19" stroke-width="2"><title>Dense at 10KB: 572.5 ms</title></circle><circle cx="309.92" cy="272.31" r="3.5" fill="#199e70" stroke="#1a1a19" stroke-width="2"><title>Dense at 100KB: 590.4 ms</title></circle><circle cx="391.67" cy="267.69" r="3.5" fill="#199e70" stroke="#1a1a19" stroke-width="2"><title>Dense at 500KB: 674.4 ms</title></circle><circle cx="428.08" cy="248" r="3.5" fill="#199e70" stroke="#1a1a19" stroke-width="2"><title>Dense at 1MB: 1.19 s</title></circle><circle cx="545.04" cy="182.56" r="3.5" fill="#199e70" stroke="#1a1a19" stroke-width="2"><title>Dense at 10MB: 7.82 s</title></circle><circle cx="662" cy="103.73" r="3.5" fill="#199e70" stroke="#1a1a19" stroke-width="2"><title>Dense at 100MB: 1.3 min</title></circle><polyline points="76,267.02 192.96,267.11 309.92,266.22 391.67,265.53 428.08,266.28 545.04,233.74 662,168.59" fill="none" stroke="#c98500" stroke-width="2"/><circle cx="76" cy="267.02" r="3.5" fill="#c98500" stroke="#1a1a19" stroke-width="2"><title>Max4K at 1KB: 687.4 ms</title></circle><circle cx="192.96" cy="267.11" r="3.5" fill="#c98500" stroke="#1a1a19" stroke-width="2"><title>Max4K at 10KB: 685.7 ms</title></circle><circle cx="309.92" cy="266.22" r="3.5" fill="#c98500" stroke="#1a1a19" stroke-width="2"><title>Max4K at 100KB: 703.5 ms</title></circle><circle cx="391.67" cy="265.53" r="3.5" fill="#c98500" stroke="#1a1a19" stroke-width="2"><title>Max4K at 500KB: 717.6 ms</title></circle><circle cx="428.08" cy="266.28" r="3.5" fill="#c98500" stroke="#1a1a19" stroke-width="2"><title>Max4K at 1MB: 702.2 ms</title></circle><circle cx="545.04" cy="233.74" r="3.5" fill="#c98500" stroke="#1a1a19" stroke-width="2"><title>Max4K at 10MB: 1.79 s</title></circle><circle cx="662" cy="168.59" r="3.5" fill="#c98500" stroke="#1a1a19" stroke-width="2"><title>Max4K at 100MB: 11.68 s</title></circle><polyline points="76,246.85 192.96,246.98 309.92,246.85 391.67,247.2 428.08,246.47 545.04,224.88 662,164.34" fill="none" stroke="#008300" stroke-width="2"/><circle cx="76" cy="246.85" r="3.5" fill="#008300" stroke="#1a1a19" stroke-width="2"><title>Max4K-R10 at 1KB: 1.23 s</title></circle><circle cx="192.96" cy="246.98" r="3.5" fill="#008300" stroke="#1a1a19" stroke-width="2"><title>Max4K-R10 at 10KB: 1.22 s</title></circle><circle cx="309.92" cy="246.85" r="3.5" fill="#008300" stroke="#1a1a19" stroke-width="2"><title>Max4K-R10 at 100KB: 1.23 s</title></circle><circle cx="391.67" cy="247.2" r="3.5" fill="#008300" stroke="#1a1a19" stroke-width="2"><title>Max4K-R10 at 500KB: 1.22 s</title></circle><circle cx="428.08" cy="246.47" r="3.5" fill="#008300" stroke="#1a1a19" stroke-width="2"><title>Max4K-R10 at 1MB: 1.24 s</title></circle><circle cx="545.04" cy="224.88" r="3.5" fill="#008300" stroke="#1a1a19" stroke-width="2"><title>Max4K-R10 at 10MB: 2.31 s</title></circle><circle cx="662" cy="164.34" r="3.5" fill="#008300" stroke="#1a1a19" stroke-width="2"><title>Max4K-R10 at 100MB: 13.21 s</title></circle></g></svg>
